<?xml version="1.0" encoding="UTF-8"?>
<!-- Generator: visioncortex VTracer 0.6.12 -->
<svg xmlns="http://www.w3.org/2000/svg" viewBox="0 0 1024 1024" width="1024" height="1024">
<path d="M0 0 C7.334873562260782 8.435104596599842 10.139337025467626 16.759597031430076 10.02734375 27.859375 C9.321451715519629 36.64822793634693 5.559963783796206 43.73518250890993 -0.25 50.3125 C-4.8981703954015074 54.26026115773823 -8.583190702296065 57.0457762809184 -14.25 59.3125 C-14.25 69.54250000000002 -14.25 79.77250000000004 -14.25 90.3125 C-10.332539062500018 90.34988281250003 -6.415078125000036 90.387265625 -2.37890625 90.42578125 C1.4705115729535692 90.47216540867038 5.3198386014880725 90.52333739384841 9.169189453125 90.574951171875 C11.817569489718267 90.6079372528946 14.466015389324639 90.63604840777845 17.114501953125 90.658935546875 C46.60602879656835 90.92061230006396 71.5591772472859 93.94015095514521 94 115 C112.59657553462489 134.56263140655352 117.22559799830174 158.23972015041016 117.13818359375 184.336181640625 C117.14081207275387 185.31114341735838 117.14081207275387 185.31114341735838 117.15411376953125 190.2450408935547 C117.16768838999951 195.550766523447 117.16253000639722 200.8563154366841 117.15297651290894 206.16204380989075 C117.14532954770448 211.73949834519965 117.15243931520786 217.31693872944652 117.15713500976563 222.89439392089844 C117.16257752683009 232.25587656148906 117.15544007632093 241.6172879645809 117.14111328125 250.978759765625 C117.12478493983599 261.7721276775629 117.13008275760683 272.5653255607781 117.14659249782562 283.35868936777115 C117.16024463624785 292.6593606742374 117.16210898759596 301.95998106035665 117.15427649021149 311.2606591582298 C117.14962103893299 316.80086166071294 117.14891626151643 322.3409844662142 117.15888595581055 327.88118171691895 C117.16923077874594 334.0602931161691 117.15485731107356 340.23911531983185 117.13818359375 346.418212890625 C117.14425628662116 348.2331625366211 117.1503289794922 350.04811218261716 117.15658569335938 351.9180603027344 C117.03373745643489 376.5651459512634 110.14772727805837 396.6193953487997 92.75 414.3125 C78.84843701238697 428.0065769728725 61.942925989205605 434.96669793465264 42.75 437.3125 C42.75 440.9425 42.75 444.5725 42.75 448.3125 C43.69875000000002 448.23 44.647500000000036 448.14750000000004 45.625 448.0625 C56.115585910195705 448.6982930854664 64.66690959316293 454.56386833470276 71.7890625 461.91796875 C80.8494558758573 472.98175588027993 82.1043629499618 486.17685392262774 82.0625 500 C82.07861328125 501.07572265625004 82.0947265625 502.15144531249996 82.111328125 503.259765625 C82.1158216938511 510.59776355875715 81.74850969791521 517.2329494994384 76.4375 522.6875 C70.93106448559092 526.0169726366194 66.08705901725466 526.5630716735647 59.71058654785156 526.5664672851563 C58.0801087951661 526.5721069335938 56.449631042480405 526.5777465820313 54.769744873046875 526.5835571289063 C53.87900772094724 526.5815328979493 53.87900772094724 526.5815328979493 49.371337890625 526.5712890625 C48.43042549133304 526.573041381836 48.43042549133304 526.573041381836 43.66883850097656 526.5819091796875 C38.51180699593863 526.5892042416565 33.35493593161209 526.587492752473 28.19791340827942 526.581151008606 C22.798642357639096 526.5760852914048 17.399378133258097 526.5807841253433 12.000106811523438 526.5839233398438 C2.9321062244789573 526.5875616207967 -6.135861781863127 526.5827678134275 -15.203857421875 526.5732421875 C-25.68302076630266 526.562361195052 -36.1621062635478 526.5658812053551 -46.64126771688461 526.5768949985504 C-55.64185499740586 526.585975698191 -64.64241886323362 526.5872492128218 -73.64300924539566 526.582017660141 C-79.01710985265913 526.5789018551743 -84.39117389190505 526.5784778829186 -89.76527214050293 526.585090637207 C-95.75754264660497 526.5919489858063 -101.74967931808033 526.5824384442224 -107.741943359375 526.5712890625 C-108.63166839599603 526.573313293457 -108.63166839599603 526.573313293457 -113.13421630859375 526.5835571289063 C-114.76751388549803 526.5779174804687 -116.40081146240232 526.5722778320312 -118.08360290527344 526.5664672851563 C-119.49998015403753 526.5657132339478 -120.91635740280151 526.5649591827392 -122.37565517425537 526.5641822814941 C-128.68990304122406 526.1540008493928 -132.1755077331427 525.4267882767409 -136.625 520.8125 C-141.66692632214733 514.0899315704702 -140.4719939521451 507.52527353343294 -140.5 499.3125 C-140.520625 497.83136718750006 -140.54125 496.350234375 -140.5625 494.82421875 C-140.60980155703794 481.5443066116069 -138.52244608985302 470.267608653843 -129.2109375 460.08203125 C-120.7810449999705 452.1436342490888 -111.9216022973535 448.11797329504407 -100.25 448.3125 C-100.39031240265763 444.3538990228923 -100.53698899319568 440.3957148356593 -100.6875 436.4375 C-100.72681640625001 435.3095703125 -100.76613281250002 434.181640625 -100.806640625 433.01953125 C-101.13671875 424.5390625 -101.13671875 424.5390625 -102.25 422.3125 C-106.53468886792984 421.2413277830176 -110.18623777658661 421.15300775866945 -114.6015625 421.1015625 C-116.25800781249995 421.07320312499996 -117.91445312500002 421.0448437499999 -119.62109375 421.015625 C-123.10015745564067 420.96389171069677 -126.5793390551321 420.9195190303151 -130.05859375 420.8828125 C-146.05053671787755 420.58551844017893 -157.9617395397462 417.90873529723433 -170.11328125 406.60546875 C-178.7560405119351 397.33069784185386 -184.27450147833315 384.87611038001353 -184.455322265625 372.1669921875 C-184.4652948760986 371.54649993896487 -184.4652948760986 371.54649993896487 -184.51576232910156 368.40643310546875 C-184.5324748229981 367.07090393066414 -184.54918731689452 365.7353747558593 -184.56640625 364.359375 C-184.58718734741205 362.98888000488273 -184.60796844482422 361.6183850097657 -184.62937927246094 360.20635986328125 C-184.69480414607165 355.82512461133456 -184.7537272438825 351.44382905195994 -184.8125 347.0625 C-184.85569190934825 344.0937437439743 -184.89930641662374 341.12499360388085 -184.943359375 338.15625 C-185.0504784206961 330.8750619275852 -185.1517660771692 323.59381314821644 -185.25 316.3125 C-186.48919189453125 316.2584399414063 -187.7283837890625 316.2043798828124 -189.005126953125 316.148681640625 C-190.62894287109373 316.0699682617187 -192.25275878906245 315.9912548828124 -193.92578125 315.91015625 C-195.53622314453128 315.8354711914062 -197.14666503906255 315.7607861328124 -198.805908203125 315.683837890625 C-206.5411258698947 315.03750123891064 -210.7094574802536 312.8285894638775 -216.1875 307.4375 C-221.42055369904438 300.3888970584301 -222.21384438072744 294.04928293498097 -221.25 285.3125 C-219.5163929477734 278.99681900266023 -217.1857573424951 274.240898200683 -213.375 268.9375 C-212.40046874999996 267.56207031250005 -211.42593750000003 266.186640625 -210.421875 264.76953125 C-209.89851562499996 264.03412109374995 -209.89851562499996 264.03412109374995 -207.25 260.3125 C-205.03537308127807 257.08764634702686 -202.82712582320244 253.85840305730778 -200.625 250.625 C-194.33050892339406 241.40980033900496 -194.33050892339406 241.40980033900496 -191.98912048339844 238.580078125 C-184.94485805722138 229.64334005126818 -184.0125517519092 222.81152438705936 -184.29296875 211.63671875 C-184.29298133850102 210.8547336578369 -184.29298133850102 210.8547336578369 -184.2930450439453 206.8974151611328 C-184.2989127324936 201.93033165383292 -184.36433881122264 196.96650987445713 -184.4375 192 C-184.48414493018595 187.04476163936238 -184.51745231482175 182.09016851862327 -184.5283966064453 177.1347198486328 C-184.5378222380093 174.06359247100994 -184.5685233157394 170.99242485764216 -184.6248016357422 167.9217987060547 C-184.75627647993667 147.93627429240894 -178.7452893432137 130.19515553737585 -165.25 115.3125 C-164.5500390625 114.53132812500002 -163.85007812499998 113.75015625000003 -163.12890625 112.9453125 C-150.2496426983729 99.3084452100419 -133.32916860185333 92.11679409475482 -114.70974731445313 91.05313110351563 C-109.67999358404597 90.96771237803642 -104.65917343975013 90.97471925033466 -99.62890625 91.01953125 C-97.80785873413083 91.02377609252932 -95.98681121826166 91.02802093505858 -94.11058044433594 91.03239440917969 C-88.34439762561408 91.04906911911456 -82.57857563014852 91.08670240924039 -76.8125 91.125 C-72.88216653684435 91.1400612308737 -68.95182754776306 91.15374710467052 -65.021484375 91.166015625 C-55.4308524167393 91.19893621197554 -45.84048720214389 91.25064226162078 -36.25 91.3125 C-36.25 80.42250000000001 -36.25 69.53250000000003 -36.25 58.3125 C-37.89999999999998 57.982500000000016 -39.549999999999955 57.65250000000003 -41.25 57.3125 C-51.51253833428245 50.22990312141064 -57.19736962983734 42.52302148065064 -60.25 30.3125 C-60.87154091065361 18.813993152907983 -58.26847667529114 10.449762086699877 -51.25 1.3125 C-36.085636704397984 -14.104602683862112 -15.92936343207134 -13.821065330767851 0 0 Z " fill="#B79CD9" transform="translate(851.25,249.6875)"/>
<path d="M0 0 C22.834201003116277 19.836871515833707 41.41966554148206 45.96124309847687 45.4375 76.6875 C45.53770082711145 80.79878571341027 45.55307638442497 84.83677919641582 45.46484375 88.94140625 C45.451031261184085 91.28449063556172 45.440054287596126 93.62759313334527 45.431640625 95.970703125 C45.411360446396316 99.60280981107252 45.37543744134962 103.23134634106634 45.290283203125 106.862548828125 C44.920444141141274 123.99298083792598 46.74670383708383 134.60979002599976 57.4375 148.6875 C58.785108455552745 150.79692763740957 60.111106770439676 152.92045949574515 61.40625 155.0625 C62.58289143313806 156.9377773425374 63.759969950860466 158.81278051245403 64.9375 160.6875 C66.21266424743925 162.72759920844317 67.48739961283422 164.76796654864967 68.76171875 166.80859375 C70.55213222815979 169.67503309692574 72.34452789578546 172.54003524858513 74.14697265625 175.39892578125 C75.68879194296392 177.844586166525 77.21970345801128 180.29711314436145 78.75 182.75 C79.61238281250002 184.12285156250005 80.47476562499997 185.49570312499998 81.36328125 186.91015625 C84.9780783639228 193.49303536330194 86.03619552005227 199.2038059993464 85.4375 206.6875 C83.11251005100854 214.6312156590542 80.15180108801894 218.84925362775107 73.4375 223.6875 C64.56911307466169 227.84455637125234 56.08863689086212 227.72348485045063 46.4375 227.6875 C46.44797363281248 229.05253662109374 46.45844726562501 230.41757324218747 46.46923828125 231.823974609375 C46.50366451968813 236.96982570553655 46.528564701704966 242.1155514447221 46.54736328125 247.261474609375 C46.55731754581029 249.47340852626053 46.57088580492103 251.6853296543071 46.58837890625 253.897216796875 C46.94305278476821 299.95266308092937 46.94305278476821 299.95266308092937 32.4375 315.6875 C17.13650736211764 328.7673808033511 0.009531852330894708 327.9997256346235 -19.0390625 328.25390625 C-19.82152343749999 328.26873046874994 -19.82152343749999 328.26873046874994 -23.78125 328.34375 C-25.203730468749995 328.36244140625 -26.62621093749999 328.3811328125 -28.091796875 328.400390625 C-31.5625 328.6875 -31.5625 328.6875 -34.5625 330.6875 C-35.86240868880839 334.58722606642505 -35.69510053598924 337.95183461471413 -35.704345703125 342.071044921875 C-35.71138015747067 343.82684371948244 -35.7184146118164 345.5826425170899 -35.72566223144531 347.3916473388672 C-35.72774436950681 348.3447403717041 -35.72774436950681 348.3447403717041 -35.73828125 353.16796875 C-35.75553798872852 356.1507841141488 -35.772818243236884 359.1335995603498 -35.791483879089355 362.11640644073486 C-35.83708084474415 369.48554354125304 -35.87479723919614 376.8546065284155 -35.888427734375 384.223876953125 C-35.8965670671235 388.35359482169883 -35.915152021388906 392.48300966018223 -35.94535827636719 396.6126251220703 C-35.97352740450532 400.5045411618895 -35.986415539333166 404.39660398602996 -35.98249816894531 408.2886199951172 C-35.99898910522461 410.06017959594726 -36.015480041503906 411.83173919677733 -36.032470703125 413.656982421875 C-36.03833694458007 415.21124435424804 -36.04420318603513 416.7655062866211 -36.05024719238281 418.3668670654297 C-36.80083434229459 424.69774805222085 -38.95415790321488 429.1133779478273 -43.5 433.5625 C-50.432897148459176 438.37308169484913 -57.07282343806253 437.9774587446818 -65.161865234375 437.962158203125 C-65.85479171752928 437.96471366882326 -65.85479171752928 437.96471366882326 -69.36141967773438 437.97764587402344 C-73.94802148138575 437.9915597943261 -78.53447333470132 437.99058376193307 -83.12109375 437.98828125 C-86.30566971961255 437.99216703236095 -89.49024517089197 437.99650145663645 -92.67481994628906 438.0012664794922 C-99.35199665940007 438.00873247164486 -106.02912050061084 438.00843450771526 -112.706298828125 438.003173828125 C-121.26898929285983 437.9973772324422 -129.83146359422807 438.01431341427406 -138.394118309021 438.03751850128174 C-144.97139250159944 438.0522393260585 -151.5486144294198 438.0531297938687 -158.12590217590332 438.0500087738037 C-161.2832488082612 438.0505227625604 -164.4405983079418 438.05577496664273 -167.5979290008545 438.0658206939697 C-172.01000965208868 438.0781359324111 -176.42166653145347 438.071422224053 -180.833740234375 438.059814453125 C-182.14146896362303 438.06745819091793 -183.4491976928711 438.07510192871086 -184.7965545654297 438.0829772949219 C-186.00080078125 438.07596298217777 -187.20504699707033 438.06894866943367 -188.44578552246094 438.0617218017578 C-189.48829184532167 438.0618895435333 -190.53079816818237 438.0620572853088 -191.60489559173584 438.06223011016846 C-199.20375233225707 437.0994507690323 -202.95494039570912 432.4695355818553 -207.5625 426.6875 C-209.08808218978078 422.1107534306577 -208.71559389265883 417.4419420232964 -208.72021484375 412.6611328125 C-208.72529556274412 411.52411422729494 -208.7303762817383 410.3870956420899 -208.73561096191406 409.2156219482422 C-208.74632632867662 406.740580493669 -208.75494191345706 404.26552927882153 -208.7617301940918 401.7904739379883 C-208.77352137330587 397.862685760574 -208.79297910861564 393.93500742704816 -208.81484985351563 390.00726318359375 C-208.87642917939291 378.8370738564124 -208.93034410707105 367.6668934930225 -208.9638671875 356.49658203125 C-208.9849200805778 349.6654520987295 -209.02031737134183 342.8345187994122 -209.06462478637695 336.00350189208984 C-209.07871129291019 333.4090482615567 -209.08749046059702 330.8145597971236 -209.09067916870117 328.2200698852539 C-209.13268806298782 297.2881785829263 -215.1114801122771 277.9186737564073 -234.9375 253.9375 C-265.96668628803246 216.0250787255378 -281.17670319715467 171.96682399954102 -277.09765625 123.12109375 C-271.0756775899787 75.83608971539473 -246.97595128164815 33.16323256378496 -209.5625 3.6875 C-208.67046875 2.9669140624999955 -207.7784375 2.246328124999991 -206.859375 1.50390625 C-148.76196054581314 -44.01655395781961 -57.879939301991385 -47.793259821293475 0 0 Z " fill="#5FA8A0" transform="translate(338.5625,337.3125)"/>
<path d="M0 0 C7.334873562260782 8.435104596599842 10.139337025467626 16.759597031430076 10.02734375 27.859375 C9.321451715519629 36.64822793634693 5.559963783796206 43.73518250890993 -0.25 50.3125 C-4.8981703954015074 54.26026115773823 -8.583190702296065 57.0457762809184 -14.25 59.3125 C-14.25 69.54250000000002 -14.25 79.77250000000004 -14.25 90.3125 C-10.332539062500018 90.34988281250003 -6.415078125000036 90.387265625 -2.37890625 90.42578125 C1.4705115729535692 90.47216540867038 5.3198386014880725 90.52333739384841 9.169189453125 90.574951171875 C11.817569489718267 90.6079372528946 14.466015389324639 90.63604840777845 17.114501953125 90.658935546875 C46.60602879656835 90.92061230006396 71.5591772472859 93.94015095514521 94 115 C112.59657553462489 134.56263140655352 117.22559799830174 158.23972015041016 117.13818359375 184.336181640625 C117.14081207275387 185.31114341735838 117.14081207275387 185.31114341735838 117.15411376953125 190.2450408935547 C117.16768838999951 195.550766523447 117.16253000639722 200.8563154366841 117.15297651290894 206.16204380989075 C117.14532954770448 211.73949834519965 117.15243931520786 217.31693872944652 117.15713500976563 222.89439392089844 C117.16257752683009 232.25587656148906 117.15544007632093 241.6172879645809 117.14111328125 250.978759765625 C117.12478493983599 261.7721276775629 117.13008275760683 272.5653255607781 117.14659249782562 283.35868936777115 C117.16024463624785 292.6593606742374 117.16210898759596 301.95998106035665 117.15427649021149 311.2606591582298 C117.14962103893299 316.80086166071294 117.14891626151643 322.3409844662142 117.15888595581055 327.88118171691895 C117.16923077874594 334.0602931161691 117.15485731107356 340.23911531983185 117.13818359375 346.418212890625 C117.14425628662116 348.2331625366211 117.1503289794922 350.04811218261716 117.15658569335938 351.9180603027344 C117.03373745643489 376.5651459512634 110.14772727805837 396.6193953487997 92.75 414.3125 C78.84843701238697 428.0065769728725 61.942925989205605 434.96669793465264 42.75 437.3125 C42.75 440.9425 42.75 444.5725 42.75 448.3125 C43.69875000000002 448.23 44.647500000000036 448.14750000000004 45.625 448.0625 C56.115585910195705 448.6982930854664 64.66690959316293 454.56386833470276 71.7890625 461.91796875 C80.8494558758573 472.98175588027993 82.1043629499618 486.17685392262774 82.0625 500 C82.07861328125 501.07572265625004 82.0947265625 502.15144531249996 82.111328125 503.259765625 C82.1158216938511 510.59776355875715 81.74850969791521 517.2329494994384 76.4375 522.6875 C70.93106448559092 526.0169726366194 66.08705901725466 526.5630716735647 59.71058654785156 526.5664672851563 C58.0801087951661 526.5721069335938 56.449631042480405 526.5777465820313 54.769744873046875 526.5835571289063 C53.87900772094724 526.5815328979493 53.87900772094724 526.5815328979493 49.371337890625 526.5712890625 C48.43042549133304 526.573041381836 48.43042549133304 526.573041381836 43.66883850097656 526.5819091796875 C38.51180699593863 526.5892042416565 33.35493593161209 526.587492752473 28.19791340827942 526.581151008606 C22.798642357639096 526.5760852914048 17.399378133258097 526.5807841253433 12.000106811523438 526.5839233398438 C2.9321062244789573 526.5875616207967 -6.135861781863127 526.5827678134275 -15.203857421875 526.5732421875 C-25.68302076630266 526.562361195052 -36.1621062635478 526.5658812053551 -46.64126771688461 526.5768949985504 C-55.64185499740586 526.585975698191 -64.64241886323362 526.5872492128218 -73.64300924539566 526.582017660141 C-79.01710985265913 526.5789018551743 -84.39117389190505 526.5784778829186 -89.76527214050293 526.585090637207 C-95.75754264660497 526.5919489858063 -101.74967931808033 526.5824384442224 -107.741943359375 526.5712890625 C-108.63166839599603 526.573313293457 -108.63166839599603 526.573313293457 -113.13421630859375 526.5835571289063 C-114.76751388549803 526.5779174804687 -116.40081146240232 526.5722778320312 -118.08360290527344 526.5664672851563 C-119.49998015403753 526.5657132339478 -120.91635740280151 526.5649591827392 -122.37565517425537 526.5641822814941 C-128.68990304122406 526.1540008493928 -132.1755077331427 525.4267882767409 -136.625 520.8125 C-141.66692632214733 514.0899315704702 -140.4719939521451 507.52527353343294 -140.5 499.3125 C-140.520625 497.83136718750006 -140.54125 496.350234375 -140.5625 494.82421875 C-140.60980155703794 481.5443066116069 -138.52244608985302 470.267608653843 -129.2109375 460.08203125 C-120.7810449999705 452.1436342490888 -111.9216022973535 448.11797329504407 -100.25 448.3125 C-100.39031240265763 444.3538990228923 -100.53698899319568 440.3957148356593 -100.6875 436.4375 C-100.72681640625001 435.3095703125 -100.76613281250002 434.181640625 -100.806640625 433.01953125 C-101.13671875 424.5390625 -101.13671875 424.5390625 -102.25 422.3125 C-106.53468886792984 421.2413277830176 -110.18623777658661 421.15300775866945 -114.6015625 421.1015625 C-116.25800781249995 421.07320312499996 -117.91445312500002 421.0448437499999 -119.62109375 421.015625 C-123.10015745564067 420.96389171069677 -126.5793390551321 420.9195190303151 -130.05859375 420.8828125 C-146.05053671787755 420.58551844017893 -157.9617395397462 417.90873529723433 -170.11328125 406.60546875 C-178.7560405119351 397.33069784185386 -184.27450147833315 384.87611038001353 -184.455322265625 372.1669921875 C-184.4652948760986 371.54649993896487 -184.4652948760986 371.54649993896487 -184.51576232910156 368.40643310546875 C-184.5324748229981 367.07090393066414 -184.54918731689452 365.7353747558593 -184.56640625 364.359375 C-184.58718734741205 362.98888000488273 -184.60796844482422 361.6183850097657 -184.62937927246094 360.20635986328125 C-184.69480414607165 355.82512461133456 -184.7537272438825 351.44382905195994 -184.8125 347.0625 C-184.85569190934825 344.0937437439743 -184.89930641662374 341.12499360388085 -184.943359375 338.15625 C-185.0504784206961 330.8750619275852 -185.1517660771692 323.59381314821644 -185.25 316.3125 C-186.48919189453125 316.2584399414063 -187.7283837890625 316.2043798828124 -189.005126953125 316.148681640625 C-190.62894287109373 316.0699682617187 -192.25275878906245 315.9912548828124 -193.92578125 315.91015625 C-195.53622314453128 315.8354711914062 -197.14666503906255 315.7607861328124 -198.805908203125 315.683837890625 C-206.5411258698947 315.03750123891064 -210.7094574802536 312.8285894638775 -216.1875 307.4375 C-221.42055369904438 300.3888970584301 -222.21384438072744 294.04928293498097 -221.25 285.3125 C-219.5163929477734 278.99681900266023 -217.1857573424951 274.240898200683 -213.375 268.9375 C-212.40046874999996 267.56207031250005 -211.42593750000003 266.186640625 -210.421875 264.76953125 C-209.89851562499996 264.03412109374995 -209.89851562499996 264.03412109374995 -207.25 260.3125 C-205.03537308127807 257.08764634702686 -202.82712582320244 253.85840305730778 -200.625 250.625 C-194.33050892339406 241.40980033900496 -194.33050892339406 241.40980033900496 -191.98912048339844 238.580078125 C-184.94485805722138 229.64334005126818 -184.0125517519092 222.81152438705936 -184.29296875 211.63671875 C-184.29298133850102 210.8547336578369 -184.29298133850102 210.8547336578369 -184.2930450439453 206.8974151611328 C-184.2989127324936 201.93033165383292 -184.36433881122264 196.96650987445713 -184.4375 192 C-184.48414493018595 187.04476163936238 -184.51745231482175 182.09016851862327 -184.5283966064453 177.1347198486328 C-184.5378222380093 174.06359247100994 -184.5685233157394 170.99242485764216 -184.6248016357422 167.9217987060547 C-184.75627647993667 147.93627429240894 -178.7452893432137 130.19515553737585 -165.25 115.3125 C-164.5500390625 114.53132812500002 -163.85007812499998 113.75015625000003 -163.12890625 112.9453125 C-150.2496426983729 99.3084452100419 -133.32916860185333 92.11679409475482 -114.70974731445313 91.05313110351563 C-109.67999358404597 90.96771237803642 -104.65917343975013 90.97471925033466 -99.62890625 91.01953125 C-97.80785873413083 91.02377609252932 -95.98681121826166 91.02802093505858 -94.11058044433594 91.03239440917969 C-88.34439762561408 91.04906911911456 -82.57857563014852 91.08670240924039 -76.8125 91.125 C-72.88216653684435 91.1400612308737 -68.95182754776306 91.15374710467052 -65.021484375 91.166015625 C-55.4308524167393 91.19893621197554 -45.84048720214389 91.25064226162078 -36.25 91.3125 C-36.25 80.42250000000001 -36.25 69.53250000000003 -36.25 58.3125 C-37.89999999999998 57.982500000000016 -39.549999999999955 57.65250000000003 -41.25 57.3125 C-51.51253833428245 50.22990312141064 -57.19736962983734 42.52302148065064 -60.25 30.3125 C-60.87154091065361 18.813993152907983 -58.26847667529114 10.449762086699877 -51.25 1.3125 C-36.085636704397984 -14.104602683862112 -15.92936343207134 -13.821065330767851 0 0 Z M-148.25 115.3125 C-149.44624999999996 116.19937500000003 -150.64250000000004 117.08625 -151.875 118 C-162.2441386661461 128.17711757973603 -171.48272594939158 142.10883747538355 -172.50155639648438 156.98570251464844 C-172.50281524658203 158.29616043090823 -172.5040740966797 159.60661834716797 -172.50537109375 160.956787109375 C-172.50885055541994 161.70440055847166 -172.50885055541994 161.70440055847166 -172.52645874023438 165.48777770996094 C-172.52546173095698 167.08895950317384 -172.5244647216797 168.69014129638674 -172.5234375 170.33984375 C-172.54372230005413 173.74414393767432 -172.56457300208626 177.1484407920167 -172.5859375 180.552734375 C-172.6085573223154 185.90945251395874 -172.62501749151102 191.26603898681321 -172.630859375 196.622802734375 C-172.6403750304986 201.79955721701526 -172.67413928725387 206.97572139049504 -172.7109375 212.15234375 C-172.70589202880865 213.75150131225587 -172.70084655761718 215.35065887451174 -172.69564819335938 216.99827575683594 C-172.81689114465883 230.69536906557414 -172.81689114465883 230.69536906557414 -177.25 237.3125 C-178.02214843750005 238.5048828125 -178.794296875 239.697265625 -179.58984375 240.92578125 C-180.44707031250005 242.14652343750004 -181.30429687499998 243.36726562499996 -182.1875 244.625 C-183.15042968750004 246.00687500000004 -184.11335937499996 247.38874999999996 -185.10546875 248.8125 C-186.14316406249998 250.2975 -187.18085937499995 251.78250000000003 -188.25 253.3125 C-209.76497749495582 284.4979726059289 -209.76497749495582 284.4979726059289 -209.25 295.3125 C-208.01834731381757 299.0758832077796 -207.13149592814887 300.7137752697515 -203.86328125 302.93359375 C-198.82653459199435 304.85572517732544 -193.88457118720794 304.8445380578654 -188.5625 304.9375 C-177.56054297135256 305.2089856762159 -177.56054297135256 305.2089856762159 -174.25 306.3125 C-173.32208568155158 310.02415727379366 -173.11404010249964 312.8704512929754 -173.09228515625 316.66650390625 C-173.08202301025392 317.9552944946289 -173.07176086425784 319.2440850830078 -173.06118774414063 320.5719299316406 C-173.05388641357422 321.96358367919925 -173.0465850830078 323.35523742675787 -173.0390625 324.7890625 C-173.01098686680882 327.7382867332417 -172.98232235816727 330.68750540854853 -172.953125 333.63671875 C-172.91192181029874 338.28434044547555 -172.87503204009 342.9318591641595 -172.8486328125 347.57958984375 C-172.8209400255456 352.0662987922026 -172.7750588750912 356.5525365052241 -172.7265625 361.0390625 C-172.72330963134766 362.4185708618164 -172.72005676269532 363.79807922363284 -172.71670532226563 365.2193908691406 C-172.54209523345946 379.0025487059647 -169.39938596614843 390.16311403385157 -159.375 400.1875 C-150.5924128136811 406.8409751411507 -142.86322069137316 409.5462744353358 -131.94140625 409.5859375 C-131.04196289062497 409.59625000000005 -131.04196289062497 409.59625000000005 -126.490234375 409.6484375 C-122.70902992245783 409.6744519785177 -118.92776393777194 409.69269747966143 -115.146484375 409.703125 C-113.34630859375 409.726328125 -111.54613281249999 409.74953125 -109.69140625 409.7734375 C-108.04857666015619 409.78165527343754 -106.40574707031249 409.7898730468751 -104.713134765625 409.79833984375 C-99.76811600967312 410.3680137948486 -97.2000678966806 411.3076040322401 -93.25 414.3125 C-89.25 421.3125 -89.25 421.3125 -88.25 448.3125 C-48.98000000000002 448.3125 -9.710000000000036 448.3125 30.75 448.3125 C30.75 441.0525 30.75 433.7925 30.75 426.3125 C33.72000000000003 426.3125 36.690000000000055 426.3125 39.75 426.3125 C60.321221675209244 423.44121837040234 78.24417810667512 414.19791908405364 91.75 398.3125 C100.44002241172097 385.6955430620203 104.85232159794089 372.3476397926396 104.89717102050781 357.0679016113281 C104.90432632446289 355.39153121948243 104.91148162841796 353.71516082763674 104.91885375976563 351.9879913330078 C104.9215426635742 350.15520126342767 104.92423156738278 348.32241119384764 104.927001953125 346.43408203125 C104.93357315063474 344.498438873291 104.94014434814449 342.5627957153321 104.94691467285156 340.56849670410156 C104.96791708298224 334.15244367691673 104.97831619856754 327.73639052719295 104.98828125 321.3203125 C104.99233078233328 319.1060980511994 104.9964477629552 316.89188372475235 105.00063133239746 314.6776695251465 C105.01967771270688 304.26911146927864 105.03390770019439 293.86056046384124 105.04224330186844 283.45198833942413 C105.05200207785765 271.46623757865007 105.07828847789688 259.48067216205186 105.1187441945076 247.49498665332794 C105.14898996578881 238.21316221045197 105.16372033679386 228.93139062775214 105.16702431440353 219.6495178937912 C105.16936588459407 214.11465143542807 105.17820907122291 208.57998309339746 105.2034854888916 203.04516983032227 C105.2312831843243 196.8582841356676 105.22690911763857 190.67180762700957 105.219970703125 184.48486328125 C105.23278076171869 182.67231552124025 105.24559082031249 180.8597677612305 105.2587890625 178.99229431152344 C105.17157293887885 157.58247522534452 99.79423824533342 138.40295550521455 84.46484375 122.86328125 C67.54269351435175 106.9637645537722 48.6572749115802 103.1848910418937 26.1328125 103.11962890625 C24.56751296997072 103.1114514160156 23.002213439941443 103.10327392578125 21.389480590820313 103.0948486328125 C16.217990882141862 103.0700712775984 11.046528492414836 103.0534977533336 5.875 103.0390625 C4.103999328613327 103.03373882293704 2.3329986572265398 103.02841514587402 0.508331298828125 103.02293014526367 C-8.866348943589287 102.99623143616174 -18.24101602194594 102.97684626268136 -27.61572265625 102.96240234375 C-35.35770492856727 102.94906769665272 -43.0994233714531 102.92121717855775 -50.84130859375 102.88037109375 C-60.206845588873875 102.83096537900997 -69.57214343501118 102.80627137240299 -78.93780517578125 102.79917526245117 C-82.49719860755908 102.79247808216036 -86.05658702389042 102.77729647115564 -89.61590576171875 102.7532844543457 C-94.6101027538217 102.7215151562093 -99.60338390731727 102.72161543474897 -104.59765625 102.72900390625 C-106.05173385620117 102.71259857177733 -107.50581146240233 102.69619323730467 -109.00395202636719 102.67929077148438 C-123.63666861671982 102.76737125321029 -136.49024625190964 106.50755790193568 -148.25 115.3125 Z " fill="#2C2C2C" transform="translate(851.25,249.6875)"/>
<path d="M0 0 C8.078242399383043 6.763179683204385 10.536536046496053 14.462053653197131 12.44921875 24.599365234375 C12.604429931640652 25.412499313354488 12.604429931640652 25.412499313354488 13.389892578125 29.527450561523438 C13.714978027343705 31.27022781372071 14.040063476562523 33.01300506591798 14.375 34.80859375 C14.546888427734302 35.715008621215816 14.546888427734302 35.715008621215816 15.416748046875 40.30201721191406 C16.5136790431975 46.09593887666932 17.60059025670239 51.89169098132231 18.6875 57.6875 C19.418640038401918 61.55415578767801 20.15040415037265 65.42069362581648 20.8828125 69.287109375 C26.009683746559404 96.41013501842201 26.009683746559404 96.41013501842201 28.390625 109.578369140625 C28.630712890624977 110.90252334594726 28.870800781249955 112.22667755126952 29.1181640625 113.59095764160156 C30.796537262279003 124.37762720993868 29.756476148881347 132.42146659754837 23.375 141.5625 C18.18415151460431 146.75334848539563 12.727823455405542 148.76688723834752 5.61328125 150.1171875 C3.949665527343768 150.43888916015624 2.2860498046875364 150.76059082031247 0.572021484375 151.092041015625 C-0.3473620605468568 151.26247924804687 -0.3473620605468568 151.26247924804687 -5 152.125 C-5.971268310546861 152.30929565429688 -5.971268310546861 152.30929565429688 -10.886474609375 153.241943359375 C-15.378794383279455 154.09261236458946 -19.87292551756036 154.9329636840406 -24.3681640625 155.76806640625 C-31.81660872568341 157.1534338542943 -39.259568893562914 158.5669777653207 -46.70249938964844 159.98162841796875 C-53.546039272377016 161.27945258363684 -60.39182031146868 162.5651556407788 -67.23818969726563 163.84796142578125 C-70.64946670458164 164.48849671265964 -74.06009955127803 165.13247260324408 -77.47006225585938 165.77996826171875 C-82.3230075542719 166.6995322641859 -87.17861692684835 167.6035422880941 -92.03515625 168.50390625 C-92.75990646362305 168.64274986267088 -92.75990646362305 168.64274986267088 -96.42758178710938 169.3453826904297 C-108.94525548780757 171.63775504856721 -120.06100451717151 173.49411353004024 -131.3125 166.25 C-138.3399336949405 159.35033782678568 -140.51239572875704 152.36586541691543 -142.19775390625 142.829833984375 C-142.53465240478516 140.9477574157715 -142.87155090332033 139.06568084716798 -143.21865844726563 137.12657165527344 C-143.5756489286846 135.08311205208565 -143.9324456160943 133.03961858513105 -144.2890625 130.99609375 C-144.6627920211559 128.89041877273849 -145.03726423385598 126.78487549048884 -145.41244506835938 124.67945861816406 C-146.39607433149274 119.14784575019405 -147.36946516150346 113.61447868028796 -148.34075927734375 108.0806884765625 C-149.33022882562392 102.45436444392578 -150.32967326431964 96.82981376327575 -151.328125 91.205078125 C-153.33484742831752 79.88883745877439 -155.3409159540359 68.57242289989844 -157.3125 57.25 C-157.5061312866211 56.142337799072266 -157.6997625732422 55.03467559814453 -157.89926147460938 53.89344787597656 C-159.3058287868833 44.89576942735218 -159.60126603969007 35.96873962549358 -154.3125 28.25 C-149.11660179049295 22.071094021126726 -142.96687614678262 19.025788447878796 -135.09521484375 17.60498046875 C-134.38637649536133 17.473823394775394 -134.38637649536133 17.473823394775394 -130.79922485351563 16.810089111328125 C-129.26446502685548 16.54018157958984 -127.72970520019533 16.270274047851558 -126.1484375 15.9921875 C-124.5270687866211 15.696579284667962 -122.9057000732422 15.400971069335924 -121.23519897460938 15.096405029296875 C-115.93005711112295 14.13355390969349 -110.62160642423157 13.190726163552455 -105.3125 12.25 C-101.68514257323682 11.5997231547465 -98.05786441714133 10.949003974963176 -94.4306640625 10.2978515625 C-85.15322671608448 8.63834996997818 -75.87237302649476 6.998922433300805 -66.58984375 5.3681640625 C-60.838061076377244 4.357527749598432 -55.08696152804532 3.3430686702101298 -49.3359375 2.328125 C-45.6536842353911 1.679469463458247 -41.97139400386402 1.0310237352152 -38.2890625 0.3828125 C-36.5819912719727 0.08182647705078239 -34.87492004394528 -0.21915954589843523 -33.116119384765625 -0.529266357421875 C-32.32521408081061 -0.6680873107910088 -32.32521408081061 -0.6680873107910088 -28.32275390625 -1.37060546875 C-26.93988189697268 -1.6137448120117313 -25.557009887695358 -1.856884155273434 -24.132232666015625 -2.107391357421875 C-23.501976776123 -2.2134217834472736 -23.501976776123 -2.2134217834472736 -20.3125 -2.75 C-19.096702575683594 -2.9576296997070415 -17.880905151367188 -3.1652593994140545 -16.628265380859375 -3.379180908203125 C-10.66086701695383 -4.046545750862805 -5.282569184748127 -2.790791267414079 0 0 Z " fill="#F2C94C" transform="translate(564.3125,175.75)"/>
<path d="M0 0 C0.7504332733154229 0.1349084472656159 0.7504332733154229 0.1349084472656159 4.5480804443359375 0.817626953125 C9.365247361847821 1.687044595121506 14.178723598916008 2.575173532841177 18.9921875 3.46484375 C22.29663582749879 4.0671911541786585 25.601242509935332 4.668670469053836 28.906005859375 5.269287109375 C35.34781782427285 6.442532329945152 41.788060251188995 7.623870769574637 48.22705078125 8.8125 C55.35168870550979 10.126844933360076 62.480821997498424 11.412427044672995 69.61328125 12.68359375 C72.88561852561634 13.276230233956653 76.1577795843051 13.869841364527701 79.4296875 14.46484375 C80.84330566406254 14.714357910156195 82.25692382812497 14.963872070312505 83.71337890625 15.220947265625 C94.67220703858607 17.263116190603228 102.44423890832059 20.259359594889816 109.1171875 29.52734375 C112.83684610865294 37.76373066916017 111.9299471855827 46.12614351011007 110.3759765625 54.80810546875 C110.29067687988277 55.29589981079107 110.29067687988277 55.29589981079107 109.8590087890625 57.764434814453125 C109.29728666632673 60.9562347398072 108.71537791453773 64.14397569120388 108.1328125 67.33203125 C107.73385299492656 69.57182663999617 107.33606606606645 71.81183117788942 106.93939208984375 74.05203247070313 C106.10719410742922 78.73533327190091 105.26586159062163 83.41686060123129 104.4169921875 88.09716796875 C103.33462171992801 94.0650353159466 102.26740582704156 100.03547468721456 101.20611953735352 106.00712394714355 C100.18655728236195 111.74129999685499 99.16024097769707 117.47426017397208 98.1328125 123.20703125 C97.93997932434081 124.28515956878664 97.74714614868162 125.36328788757328 97.54846954345703 126.47408676147461 C90.97740013348186 163.11607518621418 90.97740013348186 163.11607518621418 80.6796875 170.33984375 C67.36933987266661 177.54052361396725 50.34714348996749 171.79312234257145 36.25390625 169.1328125 C33.870414035866816 168.69078837076404 31.48676964444485 168.24958410704426 29.102981567382813 167.8091583251953 C24.128378200452858 166.88747549265156 19.155339946950562 165.9578906528817 14.183349609375 165.022216796875 C7.822963822986594 163.82563589039876 1.4595886177155535 162.6459506400622 -4.904965400695801 161.4717664718628 C-9.819161229491783 160.56376649089793 -14.731957876751267 159.648380150756 -19.644338607788086 158.73061561584473 C-21.990250574488698 158.29294923722307 -24.336522054044394 157.8572051820356 -26.68316078186035 157.42345237731934 C-29.962465598022902 156.8158437200948 -33.239829481691345 156.198674691031 -36.516845703125 155.578857421875 C-38.37847854614256 155.23022140502928 -40.24011138916018 154.88158538818357 -42.15815734863281 154.5223846435547 C-51.86739199789582 152.3363557588582 -58.1950240624065 149.64581593763512 -63.9453125 141.33984375 C-71.27439644143021 128.1474926554256 -65.98384208272671 110.73288618146387 -63.51953125 96.73046875 C-63.14473099596023 94.55497497097053 -62.77078908485447 92.37933315831594 -62.39765930175781 90.20355224609375 C-61.617169620410436 85.6671239824434 -60.82888028224289 81.13214723628141 -60.034423828125 76.59814453125 C-59.02019531679139 70.80827582047016 -58.02181500376736 65.01581579471053 -57.028780937194824 59.2222785949707 C-56.259029940594814 54.73798062707965 -55.482840501589294 50.25481656190459 -54.704538345336914 45.771995544433594 C-54.33426330542602 43.63697255072873 -53.96550242214971 41.50168634785291 -53.59833335876465 39.366127014160156 C-53.08308847905306 36.377445608319704 -52.558681380884934 33.390348206808085 -52.033935546875 30.4033203125 C-51.7385942077637 28.70902893066409 -51.44325286865234 27.01473754882818 -51.13896179199219 25.26910400390625 C-48.65106037272261 13.235084957921458 -45.29680485736816 5.273858553010314 -35.0078125 -1.72265625 C-23.422617210842077 -4.338668089487328 -11.489290113850586 -2.148204918164538 0 0 Z " fill="#E57373" transform="translate(496.1328125,602.59765625)"/>
<path d="M0 0 C0.6749450683593636 0.12103088378904658 0.6749450683593636 0.12103088378904658 4.090576171875 0.7335205078125 C8.487579578108921 1.524372869634533 12.882549411798891 2.325875093638899 17.27734375 3.12890625 C20.304580163806577 3.6786097565941986 23.331842697410252 4.228169439291037 26.359130859375 4.777587890625 C32.4357589190264 5.882645255650118 38.511246806701365 6.993718595129167 44.5859375 8.109375 C51.169979343050954 9.318539972948429 57.756515230336504 10.513070840976866 64.34449768066406 11.700546264648438 C68.66502242321849 12.482778561024531 72.98294589564057 13.278572985079506 77.30001831054688 14.079620361328125 C80.20555859507499 14.615662628025063 83.11362340275457 15.13796353987982 86.021728515625 15.659912109375 C106.35728929804077 19.489427293401548 106.35728929804077 19.489427293401548 113.71484375 27.50390625 C120.0233535261915 38.07066012512075 117.66296743678595 47.84872072410917 115.512451171875 59.464599609375 C115.16506393432621 61.35033187866213 114.81767669677731 63.23606414794921 114.45976257324219 65.17893981933594 C114.08031533254075 67.21311216356304 113.70048932765656 69.24721388571709 113.3203125 71.28125 C112.92766504079827 73.39293180363984 112.53511397443503 75.50463153267486 112.14265441894531 77.61634826660156 C111.32106005543324 82.03053469888744 110.49591688079204 86.44404148841477 109.668701171875 90.857177734375 C108.61383403764876 96.4882513996418 107.57149209513864 102.12156434209737 106.53228282928467 107.7555456161499 C105.72622646302705 112.11413859379877 104.91162269249367 116.47110285050383 104.09469032287598 120.82766914367676 C103.70694698348416 122.90294466620759 103.32223471596626 124.97878906451899 102.94072532653809 127.05521965026855 C97.58255457188898 156.16652378651543 97.58255457188898 156.16652378651543 88.21484375 163.69140625 C78.07443448717106 169.50722920956366 68.38563413960355 167.99603086417665 57.28662109375 165.811279296875 C56.771230239868146 165.71127624511723 56.771230239868146 165.71127624511723 54.16304016113281 165.2052001953125 C50.790207580813785 164.54798847794962 47.420533432531556 163.87593752255202 44.05078125 163.203125 C41.68924206859674 162.73874879380014 39.327555269889785 162.2751227121962 36.965728759765625 161.8122100830078 C32.03053450272159 160.84263126330995 27.096797941438695 159.86604300195188 22.1640625 158.884033203125 C15.857319151499837 157.62877249694725 9.547843785227258 156.38795182412719 3.237295150756836 155.15198040008545 C-1.6347727950577564 154.19664492088953 -6.5056271123840475 153.23524060035015 -11.376110076904297 152.27186012268066 C-13.70172081756209 151.81229370479934 -16.027627927140657 151.3542243120753 -18.353839874267578 150.8977108001709 C-21.609005321326833 150.2576166184981 -24.862528641846893 149.6097464560754 -28.11572265625 148.959716796875 C-29.963402404785143 148.59331588745113 -31.811082153320285 148.22691497802737 -33.714752197265625 147.8494110107422 C-43.81614910425003 145.54240241995228 -49.63534351076663 143.05787998133133 -56.78515625 135.69140625 C-61.788750314952665 127.24784126539237 -60.988777512969705 117.87530721412332 -59.309814453125 108.53515625 C-59.2253179168701 108.05477905273438 -59.2253179168701 108.05477905273438 -58.79771423339844 105.623779296875 C-58.24050704004708 102.47709396784688 -57.66384161234453 99.33435085718429 -57.0859375 96.19140625 C-56.689649086330576 93.9877877868476 -56.294252505469785 91.78400877241239 -55.89970397949219 89.580078125 C-55.07172896560428 84.97234705570378 -54.234318645435394 80.36646258883741 -53.389892578125 75.76171875 C-52.312000680194444 69.88064457055441 -51.25569871369538 63.995943973513704 -50.20621967315674 58.1097412109375 C-49.39314871507969 53.56135601809905 -48.5696184136217 49.01491305803887 -47.74287986755371 44.468994140625 C-47.34963540319461 42.30075485488425 -46.95935044792424 40.13197652662211 -46.57216835021973 37.962646484375 C-46.02769193093627 34.92230669293326 -45.469392577986184 31.88481365980465 -44.907470703125 28.84765625 C-44.59356887817381 27.12353515625 -44.27966705322268 25.3994140625 -43.95625305175781 23.623046875 C-41.78961557975816 14.499055279665981 -39.18824821310517 7.6616417041170735 -31.78515625 1.69140625 C-20.622266240123338 -3.8193875523441534 -11.756358565422659 -2.1565950906434637 0 0 Z " fill="#6C8EBF" transform="translate(498.78515625,388.30859375)"/>
<path d="M0 0 C22.834201003116277 19.836871515833707 41.41966554148206 45.96124309847687 45.4375 76.6875 C45.53770082711145 80.79878571341027 45.55307638442497 84.83677919641582 45.46484375 88.94140625 C45.451031261184085 91.28449063556172 45.440054287596126 93.62759313334527 45.431640625 95.970703125 C45.411360446396316 99.60280981107252 45.37543744134962 103.23134634106634 45.290283203125 106.862548828125 C44.920444141141274 123.99298083792598 46.74670383708383 134.60979002599976 57.4375 148.6875 C58.785108455552745 150.79692763740957 60.111106770439676 152.92045949574515 61.40625 155.0625 C62.58289143313806 156.9377773425374 63.759969950860466 158.81278051245403 64.9375 160.6875 C66.21266424743925 162.72759920844317 67.48739961283422 164.76796654864967 68.76171875 166.80859375 C70.55213222815979 169.67503309692574 72.34452789578546 172.54003524858513 74.14697265625 175.39892578125 C75.68879194296392 177.844586166525 77.21970345801128 180.29711314436145 78.75 182.75 C79.61238281250002 184.12285156250005 80.47476562499997 185.49570312499998 81.36328125 186.91015625 C84.9780783639228 193.49303536330194 86.03619552005227 199.2038059993464 85.4375 206.6875 C83.11251005100854 214.6312156590542 80.15180108801894 218.84925362775107 73.4375 223.6875 C64.56911307466169 227.84455637125234 56.08863689086212 227.72348485045063 46.4375 227.6875 C46.44797363281248 229.05253662109374 46.45844726562501 230.41757324218747 46.46923828125 231.823974609375 C46.50366451968813 236.96982570553655 46.528564701704966 242.1155514447221 46.54736328125 247.261474609375 C46.55731754581029 249.47340852626053 46.57088580492103 251.6853296543071 46.58837890625 253.897216796875 C46.94305278476821 299.95266308092937 46.94305278476821 299.95266308092937 32.4375 315.6875 C17.13650736211764 328.7673808033511 0.009531852330894708 327.9997256346235 -19.0390625 328.25390625 C-19.82152343749999 328.26873046874994 -19.82152343749999 328.26873046874994 -23.78125 328.34375 C-25.203730468749995 328.36244140625 -26.62621093749999 328.3811328125 -28.091796875 328.400390625 C-31.5625 328.6875 -31.5625 328.6875 -34.5625 330.6875 C-35.86240868880839 334.58722606642505 -35.69510053598924 337.95183461471413 -35.704345703125 342.071044921875 C-35.71138015747067 343.82684371948244 -35.7184146118164 345.5826425170899 -35.72566223144531 347.3916473388672 C-35.72774436950681 348.3447403717041 -35.72774436950681 348.3447403717041 -35.73828125 353.16796875 C-35.75553798872852 356.1507841141488 -35.772818243236884 359.1335995603498 -35.791483879089355 362.11640644073486 C-35.83708084474415 369.48554354125304 -35.87479723919614 376.8546065284155 -35.888427734375 384.223876953125 C-35.8965670671235 388.35359482169883 -35.915152021388906 392.48300966018223 -35.94535827636719 396.6126251220703 C-35.97352740450532 400.5045411618895 -35.986415539333166 404.39660398602996 -35.98249816894531 408.2886199951172 C-35.99898910522461 410.06017959594726 -36.015480041503906 411.83173919677733 -36.032470703125 413.656982421875 C-36.03833694458007 415.21124435424804 -36.04420318603513 416.7655062866211 -36.05024719238281 418.3668670654297 C-36.80083434229459 424.69774805222085 -38.95415790321488 429.1133779478273 -43.5 433.5625 C-50.432897148459176 438.37308169484913 -57.07282343806253 437.9774587446818 -65.161865234375 437.962158203125 C-65.85479171752928 437.96471366882326 -65.85479171752928 437.96471366882326 -69.36141967773438 437.97764587402344 C-73.94802148138575 437.9915597943261 -78.53447333470132 437.99058376193307 -83.12109375 437.98828125 C-86.30566971961255 437.99216703236095 -89.49024517089197 437.99650145663645 -92.67481994628906 438.0012664794922 C-99.35199665940007 438.00873247164486 -106.02912050061084 438.00843450771526 -112.706298828125 438.003173828125 C-121.26898929285983 437.9973772324422 -129.83146359422807 438.01431341427406 -138.394118309021 438.03751850128174 C-144.97139250159944 438.0522393260585 -151.5486144294198 438.0531297938687 -158.12590217590332 438.0500087738037 C-161.2832488082612 438.0505227625604 -164.4405983079418 438.05577496664273 -167.5979290008545 438.0658206939697 C-172.01000965208868 438.0781359324111 -176.42166653145347 438.071422224053 -180.833740234375 438.059814453125 C-182.14146896362303 438.06745819091793 -183.4491976928711 438.07510192871086 -184.7965545654297 438.0829772949219 C-186.00080078125 438.07596298217777 -187.20504699707033 438.06894866943367 -188.44578552246094 438.0617218017578 C-189.48829184532167 438.0618895435333 -190.53079816818237 438.0620572853088 -191.60489559173584 438.06223011016846 C-199.20375233225707 437.0994507690323 -202.95494039570912 432.4695355818553 -207.5625 426.6875 C-209.08808218978078 422.1107534306577 -208.71559389265883 417.4419420232964 -208.72021484375 412.6611328125 C-208.72529556274412 411.52411422729494 -208.7303762817383 410.3870956420899 -208.73561096191406 409.2156219482422 C-208.74632632867662 406.740580493669 -208.75494191345706 404.26552927882153 -208.7617301940918 401.7904739379883 C-208.77352137330587 397.862685760574 -208.79297910861564 393.93500742704816 -208.81484985351563 390.00726318359375 C-208.87642917939291 378.8370738564124 -208.93034410707105 367.6668934930225 -208.9638671875 356.49658203125 C-208.9849200805778 349.6654520987295 -209.02031737134183 342.8345187994122 -209.06462478637695 336.00350189208984 C-209.07871129291019 333.4090482615567 -209.08749046059702 330.8145597971236 -209.09067916870117 328.2200698852539 C-209.13268806298782 297.2881785829263 -215.1114801122771 277.9186737564073 -234.9375 253.9375 C-265.96668628803246 216.0250787255378 -281.17670319715467 171.96682399954102 -277.09765625 123.12109375 C-271.0756775899787 75.83608971539473 -246.97595128164815 33.16323256378496 -209.5625 3.6875 C-208.67046875 2.9669140624999955 -207.7784375 2.246328124999991 -206.859375 1.50390625 C-148.76196054581314 -44.01655395781961 -57.879939301991385 -47.793259821293475 0 0 Z M-140.5625 -17.3125 C-141.812890625 -17.03535156250001 -143.06328125 -16.758203125000023 -144.3515625 -16.47265625 C-166.9240896153849 -11.228289671800326 -188.30445566760363 0.3071308909683239 -205.5625 15.6875 C-206.3991015625 16.41582031249999 -207.235703125 17.144140624999977 -208.09765625 17.89453125 C-237.0533792754381 43.44896378095075 -255.80106879320033 75.79760401771426 -263.5625 113.6875 C-263.9221484375 115.38261718749999 -264.281796875 117.07773437499998 -264.65234375 118.82421875 C-265.6880359264562 125.496209981162 -265.9058910146548 131.88628184660928 -265.875 138.625 C-265.8700854492188 139.89827148437496 -265.8651708984375 141.17154296875003 -265.860107421875 142.4833984375 C-265.3158109855411 186.75284192599383 -244.8217302305106 222.3640774843393 -217.6875 256 C-200.97143376784646 277.1228053419554 -197.11587413411488 299.01433080499623 -197.18237495422363 325.26897048950195 C-197.19155527608183 329.2283357023256 -197.18118562302365 333.1872345547937 -197.16575622558594 337.1465759277344 C-197.1258234451987 348.39279568988786 -197.12446568934362 359.63897497251185 -197.126708984375 370.88525390625 C-197.12675996360133 377.78737461544665 -197.10766644594116 384.6892390033121 -197.0773754119873 391.5912895202637 C-197.06653276065447 395.493531643221 -197.0786839656834 399.3952892302973 -197.09120178222656 403.2975158691406 C-197.08230334359976 405.6783293325507 -197.0722310597201 408.0591387989019 -197.060791015625 410.43994140625 C-197.07053451538087 411.525654296875 -197.0802780151367 412.61136718750004 -197.09031677246094 413.72998046875 C-197.01810485451225 421.2318951454878 -197.01810485451225 421.2318951454878 -192.5625 425.6875 C-188.10252861284164 426.08848620266895 -183.89031885472386 426.2437420370718 -179.427978515625 426.220947265625 C-178.07967956542967 426.2295628356933 -176.73138061523437 426.2381784057618 -175.34222412109375 426.24705505371094 C-170.87509082348066 426.2698003415792 -166.40858050739757 426.26295958038884 -161.94140625 426.25390625 C-158.8426850621376 426.2591381004231 -155.74396547336005 426.2654129565317 -152.64524841308594 426.27268981933594 C-146.14615391513868 426.2831100214404 -139.64727814608267 426.2785090424344 -133.148193359375 426.263916015625 C-124.81052579624753 426.2467293518266 -116.47354739932828 426.27021555671604 -108.13595676422119 426.30540561676025 C-101.73540154260857 426.32734298334435 -95.33501212500752 426.3259467897267 -88.9344310760498 426.31764030456543 C-85.85998720197824 426.316818734383 -82.7855314002818 426.3237211142433 -79.71112251281738 426.33841133117676 C-75.41578671028185 426.35578711832727 -71.12170099641423 426.3413686285543 -66.826416015625 426.318603515625 C-65.55092391967776 426.3302957153321 -64.27543182373046 426.341987915039 -62.96128845214844 426.3540344238281 C-58.13093723251848 426.30182193527 -54.461934619220415 426.23276097447547 -50.270751953125 423.69195556640625 C-47.95075417913233 419.61156788508606 -47.95034583401957 416.67533605100607 -47.966552734375 411.985107421875 C-47.95982040405272 410.20943893432616 -47.95308807373044 408.4337704467773 -47.94615173339844 406.6042938232422 C-47.95439216613772 405.64542518615724 -47.95439216613772 405.64542518615724 -47.99609375 400.79296875 C-47.987484708695774 397.78059672538393 -47.978854194644214 394.7682245815905 -47.96895694732666 391.75585651397705 C-47.95862909545497 386.46218216958937 -47.98150799679394 381.1686374177841 -48 375.875 C-48.01822441342847 369.57115141559643 -48.0287351252573 363.26755695425754 -48.01026916503906 356.9636993408203 C-48.000969176691 353.0383134085606 -48.01021744307275 349.11283048577025 -48.03990173339844 345.1875457763672 C-48.03632156372066 343.4024208068847 -48.032741394043 341.61729583740237 -48.029052734375 339.778076171875 C-48.035251312255866 338.2120817565917 -48.04144989013673 336.64608734130866 -48.04783630371094 335.0326385498047 C-47.32912228656858 328.59810653913087 -45.158335274986825 324.2181991413139 -40.5 319.75 C-35.78804787401475 316.441608081755 -32.260114167430515 316.5447735750953 -26.59765625 316.4765625 C-24.992128906250002 316.44820312499996 -23.386601562500005 316.4198437499999 -21.732421875 316.390625 C-18.36273361039099 316.3390810112488 -14.992927930247845 316.29465618197855 -11.623046875 316.2578125 C3.178504067871586 315.97464213521016 15.024137416034819 314.7301944547669 26.1875 304.125 C33.36896920976392 294.3195324251301 34.02134999828377 284.429172554203 33.9765625 272.69140625 C33.988355407714835 271.29969711303715 34.00014831542967 269.9079879760742 34.012298583984375 268.47410583496094 C34.047360171470416 264.06595448154974 34.05671264167637 259.6582790630845 34.0625 255.25 C34.07885220376727 250.8168694639793 34.100865252117956 246.38394922707653 34.134124755859375 241.95091247558594 C34.15373310949616 239.2019951924267 34.16309200790511 236.45298120267398 34.161041259765625 233.70399475097656 C34.16800018310545 232.46177658081058 34.17495910644533 231.2195584106446 34.18212890625 229.939697265625 C34.183387756347656 228.8500416564941 34.18464660644531 227.76038604736323 34.185943603515625 226.63771057128906 C34.4375 223.6875 34.4375 223.6875 36.4375 218.6875 C41.50790292083309 216.6593388316668 44.730728751252684 216.4007290018701 50.125 216.25 C57.13013993831345 215.92127984108242 62.95448982735161 215.38044268710007 69.4375 212.6875 C73.6298845777066 207.0976538963912 73.98070385881596 203.6371493689752 73.4375 196.6875 C71.33984375000006 192.4960937500001 71.33984375000006 192.4960937500001 68.375 188.125 C67.28445312500003 186.4788671875 66.19390625 184.83273437499997 65.0703125 183.13671875 C64.48153320312503 182.25935058593745 63.89275390624999 181.38198242187502 63.2861328125 180.47802734375 C60.006892175256155 175.5279850189089 56.88592951928314 170.47907015554324 53.75 165.4375 C53.43204467773438 164.92799804687502 53.43204467773438 164.92799804687502 51.822998046875 162.349609375 C33.98770188212467 133.74648746033614 33.98770188212467 133.74648746033614 34.06640625 119.75390625 C34.0490081901371 117.38867054363305 34.031423999607 115.02343620045622 34.013671875 112.658203125 C34.00365894480984 108.96587406293276 33.99998898744121 105.27364081732645 34.001708984375 101.581298828125 C33.96670115663568 66.84186443479996 23.51131711805806 40.45613816804098 -0.625 15.1875 C-27.96491778976315 -11.611977554384111 -64.8700810078671 -21.727327307007783 -102.25 -21.6875 C-103.83256591796874 -21.685888671874977 -105.4151318359375 -21.68427734375001 -107.045654296875 -21.6826171875 C-118.73232577446751 -21.560312720182026 -129.2584312400348 -20.402278794390497 -140.5625 -17.3125 Z " fill="#2C2C2C" transform="translate(338.5625,337.3125)"/>
<path d="M0 0 C1.2699984741210528 -0.0071553039550735775 2.5399969482422193 -0.014310607910147155 3.848480224609375 -0.0216827392578125 C5.239700927734361 -0.02437164306638806 6.630921630859348 -0.02706054687496362 8.064300537109375 -0.0298309326171875 C9.531364440917969 -0.03640213012693039 10.998428344726563 -0.042973327636673275 12.50994873046875 -0.04974365234375 C17.374908947059453 -0.06948713918836802 22.239838275124725 -0.08114182905387679 27.104827880859375 -0.0911102294921875 C28.765627555847118 -0.09518575668334961 30.426427230834975 -0.09926128387451172 32.13755416870117 -0.10346031188964844 C40.928239197470475 -0.1243257407264764 49.71890859371433 -0.13862533625592732 58.509613037109375 -0.1479949951171875 C67.58874698385102 -0.1590589398457496 76.6676358185797 -0.1934581670212765 85.74668312072754 -0.23316669464111328 C92.72815404698542 -0.2593139809166587 99.70956641457474 -0.2676852210202014 106.69108200073242 -0.27127647399902344 C110.03772003116512 -0.27614741324123315 113.38435536043835 -0.2877756655484518 116.7309455871582 -0.30631446838378906 C121.41778220143635 -0.3306633417714693 126.10398252008326 -0.32974763422839715 130.79086303710938 -0.3227996826171875 C132.16993835449216 -0.3356097412109875 133.54901367187495 -0.34841979980467386 134.96987915039063 -0.3616180419921875 C144.54894348480605 -0.30993230824321927 151.98782792855957 1.0095173710817562 159.62826538085938 7.2721710205078125 C165.67354159524268 14.62133033995417 168.93890115249565 21.938828676883077 168.94857788085938 31.408889770507813 C168.94986694335944 32.60965148925777 168.9511560058594 33.810413208007844 168.95248413085938 35.04756164550781 C168.9486169433594 36.2973077392578 168.94474975585933 37.547053833007794 168.94076538085938 38.83467102050781 C168.94463256835934 40.09601867675781 168.94849975585942 41.3573663330078 168.95248413085938 42.65693664550781 C168.94239947789436 52.02053692347283 168.94239947789436 52.02053692347283 167.81576538085938 53.14717102050781 C165.29922998693894 53.24671766831125 162.77982544435827 53.27349669977184 160.26132202148438 53.27415466308594 C159.43677017211917 53.27556457519529 159.43677017211917 53.27556457519529 155.2640380859375 53.28269958496094 C153.43645965576172 53.28067535400396 151.60888122558595 53.27865112304687 149.72592163085938 53.27656555175781 C147.81568206787108 53.278317871093805 145.90544250488279 53.28007019042968 143.93731689453125 53.28187561035156 C138.68127183808997 53.286451342414125 133.4252463143962 53.28465981145666 128.1692008972168 53.28149652481079 C122.6816782162822 53.27897364176192 117.19415726446698 53.28131025982373 111.70663452148438 53.28288269042969 C102.48942767468236 53.28470459737582 93.27222882712636 53.2822975255383 84.05502319335938 53.27754211425781 C73.38216415625709 53.272099455217585 62.70932421878342 53.27386209689587 52.036465644836426 53.27936851978302 C42.89085634518199 53.28389905102233 33.74525281223259 53.28455049341471 24.599642753601074 53.28192985057831 C19.12953566691033 53.28036674447799 13.65943757205116 53.28017422241055 8.1893310546875 53.28346633911133 C2.094745476429921 53.28687774418438 -3.999806910115126 53.282156294156266 -10.094390869140625 53.27656555175781 C-11.00818008422857 53.2775776672363 -11.00818008422857 53.2775776672363 -15.63250732421875 53.28269958496094 C-17.281611022949164 53.27987976074223 -18.930714721679692 53.277059936523415 -20.629791259765625 53.27415466308594 C-22.072942047119113 53.27377763748166 -23.5160928344726 53.27340061187749 -25.002975463867188 53.27301216125488 C-28.184234619140625 53.14717102050781 -28.184234619140625 53.14717102050781 -29.184234619140625 52.14717102050781 C-29.497483327966847 47.48775850191237 -29.462903998252614 42.81579670305018 -29.496734619140625 38.14717102050781 C-29.52573852539058 36.843928833007794 -29.554742431640648 35.540686645507776 -29.584625244140625 34.19795227050781 C-29.649446247389278 24.33518731467143 -28.044796539562753 17.887905839521295 -21.934234619140625 9.897171020507813 C-15.233750168102574 3.1966865694697617 -9.426333838955202 0.036481029948959076 0 0 Z " fill="#B79CD9" transform="translate(752.1842346191406,709.8528289794922)"/>
<path d="M0 0 C8.078242399383043 6.763179683204385 10.536536046496053 14.462053653197131 12.44921875 24.599365234375 C12.604429931640652 25.412499313354488 12.604429931640652 25.412499313354488 13.389892578125 29.527450561523438 C13.714978027343705 31.27022781372071 14.040063476562523 33.01300506591798 14.375 34.80859375 C14.546888427734302 35.715008621215816 14.546888427734302 35.715008621215816 15.416748046875 40.30201721191406 C16.5136790431975 46.09593887666932 17.60059025670239 51.89169098132231 18.6875 57.6875 C19.418640038401918 61.55415578767801 20.15040415037265 65.42069362581648 20.8828125 69.287109375 C26.009683746559404 96.41013501842201 26.009683746559404 96.41013501842201 28.390625 109.578369140625 C28.630712890624977 110.90252334594726 28.870800781249955 112.22667755126952 29.1181640625 113.59095764160156 C30.796537262279003 124.37762720993868 29.756476148881347 132.42146659754837 23.375 141.5625 C18.18415151460431 146.75334848539563 12.727823455405542 148.76688723834752 5.61328125 150.1171875 C3.949665527343768 150.43888916015624 2.2860498046875364 150.76059082031247 0.572021484375 151.092041015625 C-0.3473620605468568 151.26247924804687 -0.3473620605468568 151.26247924804687 -5 152.125 C-5.971268310546861 152.30929565429688 -5.971268310546861 152.30929565429688 -10.886474609375 153.241943359375 C-15.378794383279455 154.09261236458946 -19.87292551756036 154.9329636840406 -24.3681640625 155.76806640625 C-31.81660872568341 157.1534338542943 -39.259568893562914 158.5669777653207 -46.70249938964844 159.98162841796875 C-53.546039272377016 161.27945258363684 -60.39182031146868 162.5651556407788 -67.23818969726563 163.84796142578125 C-70.64946670458164 164.48849671265964 -74.06009955127803 165.13247260324408 -77.47006225585938 165.77996826171875 C-82.3230075542719 166.6995322641859 -87.17861692684835 167.6035422880941 -92.03515625 168.50390625 C-92.75990646362305 168.64274986267088 -92.75990646362305 168.64274986267088 -96.42758178710938 169.3453826904297 C-108.94525548780757 171.63775504856721 -120.06100451717151 173.49411353004024 -131.3125 166.25 C-138.3399336949405 159.35033782678568 -140.51239572875704 152.36586541691543 -142.19775390625 142.829833984375 C-142.53465240478516 140.9477574157715 -142.87155090332033 139.06568084716798 -143.21865844726563 137.12657165527344 C-143.5756489286846 135.08311205208565 -143.9324456160943 133.03961858513105 -144.2890625 130.99609375 C-144.6627920211559 128.89041877273849 -145.03726423385598 126.78487549048884 -145.41244506835938 124.67945861816406 C-146.39607433149274 119.14784575019405 -147.36946516150346 113.61447868028796 -148.34075927734375 108.0806884765625 C-149.33022882562392 102.45436444392578 -150.32967326431964 96.82981376327575 -151.328125 91.205078125 C-153.33484742831752 79.88883745877439 -155.3409159540359 68.57242289989844 -157.3125 57.25 C-157.5061312866211 56.142337799072266 -157.6997625732422 55.03467559814453 -157.89926147460938 53.89344787597656 C-159.3058287868833 44.89576942735218 -159.60126603969007 35.96873962549358 -154.3125 28.25 C-149.11660179049295 22.071094021126726 -142.96687614678262 19.025788447878796 -135.09521484375 17.60498046875 C-134.38637649536133 17.473823394775394 -134.38637649536133 17.473823394775394 -130.79922485351563 16.810089111328125 C-129.26446502685548 16.54018157958984 -127.72970520019533 16.270274047851558 -126.1484375 15.9921875 C-124.5270687866211 15.696579284667962 -122.9057000732422 15.400971069335924 -121.23519897460938 15.096405029296875 C-115.93005711112295 14.13355390969349 -110.62160642423157 13.190726163552455 -105.3125 12.25 C-101.68514257323682 11.5997231547465 -98.05786441714133 10.949003974963176 -94.4306640625 10.2978515625 C-85.15322671608448 8.63834996997818 -75.87237302649476 6.998922433300805 -66.58984375 5.3681640625 C-60.838061076377244 4.357527749598432 -55.08696152804532 3.3430686702101298 -49.3359375 2.328125 C-45.6536842353911 1.679469463458247 -41.97139400386402 1.0310237352152 -38.2890625 0.3828125 C-36.5819912719727 0.08182647705078239 -34.87492004394528 -0.21915954589843523 -33.116119384765625 -0.529266357421875 C-32.32521408081061 -0.6680873107910088 -32.32521408081061 -0.6680873107910088 -28.32275390625 -1.37060546875 C-26.93988189697268 -1.6137448120117313 -25.557009887695358 -1.856884155273434 -24.132232666015625 -2.107391357421875 C-23.501976776123 -2.2134217834472736 -23.501976776123 -2.2134217834472736 -20.3125 -2.75 C-19.096702575683594 -2.9576296997070415 -17.880905151367188 -3.1652593994140545 -16.628265380859375 -3.379180908203125 C-10.66086701695383 -4.046545750862805 -5.282569184748127 -2.790791267414079 0 0 Z M-40 12.375 C-40.92292846679686 12.532749023437503 -40.92292846679686 12.532749023437503 -45.593505859375 13.3310546875 C-61.10324409227803 15.997010296000383 -76.58860407694533 18.79583049043896 -92.06396484375 21.65380859375 C-96.10146795314637 22.39479631306054 -100.14354142742263 23.10766204041738 -104.1875 23.8125 C-104.80238281250001 23.92207031250001 -104.80238281250001 23.92207031250001 -107.9140625 24.4765625 C-110.45524729876206 24.923413823405753 -112.9974044620937 25.364944655718773 -115.5419921875 25.7919921875 C-119.2179712094536 26.410130008413404 -122.89016756340698 27.048088364366038 -126.5625 27.6875 C-127.15281005859373 27.784219970703134 -127.15281005859373 27.784219970703134 -130.14013671875 28.273681640625 C-135.96826624223803 29.305175416407963 -140.01434582977686 30.139669787366444 -144.3125 34.25 C-148.68780887063525 43.0006177412705 -146.46532474422855 53.32034296469155 -144.49609375 62.5625 C-142.42227972922444 72.59114810401667 -140.67536345313744 82.6483693563485 -139 92.75 C-136.64608051533543 106.69086304633572 -134.2053912320602 120.61080838689657 -131.5625 134.5 C-131.28108154296876 136.01529296875003 -130.99966308593753 137.5305859375 -130.709716796875 139.091796875 C-130.43941650390627 140.48978515625004 -130.1691162109375 141.88777343749996 -129.890625 143.328125 C-129.65762695312497 144.549189453125 -129.42462890625 145.77025390625 -129.1845703125 147.0283203125 C-127.70257843043021 152.50322649273323 -125.18725141742254 156.44961088786363 -120.3125 159.25 C-110.7530611347376 159.95912985802045 -101.5963070930307 157.88630876326863 -92.25 156.125 C-91.38395141601563 155.9654382324219 -91.38395141601563 155.9654382324219 -87.001220703125 155.157958984375 C-83.45267346568761 154.5039754974443 -79.90473588964988 153.84667513306874 -76.357421875 153.18603515625 C-70.54750553030749 152.10806287278353 -64.73242281249782 151.06094921012078 -58.916259765625 150.017333984375 C-52.04481933124191 148.7806374857737 -45.17832667299854 147.51744674850084 -38.3125 146.25 C-37.42667236328123 146.086611328125 -37.42667236328123 146.086611328125 -32.94384765625 145.259765625 C-27.231887882769115 144.20194098231173 -21.521973761849722 143.13365487038698 -15.8125 142.0625 C-14.012565917968686 141.72935791015624 -12.212631835937486 141.39621582031248 -10.358154296875 141.052978515625 C-8.662150878906232 140.7325659179687 -6.966147460937464 140.41215332031254 -5.21875 140.08203125 C-3.7163476562500364 139.80077392578124 -2.213945312499959 139.5195166015625 -0.666015625 139.229736328125 C11.469186388873254 136.49877145140488 11.469186388873254 136.49877145140488 15.1875 132.6875 C20.120148203179042 124.67194666983414 17.619158597784804 115.05336027071121 15.58984375 106.375 C14.546179754274021 101.60396459096683 13.770700913425912 96.82287504934948 13 92 C11.10671862977074 80.29327446025269 8.9115924671745 68.64790901684094 6.6875 57 C6.355324707031286 55.259443359374984 6.023149414062459 53.51888671875 5.680908203125 51.7255859375 C5.02218433065093 48.29160933810971 4.356486300814822 44.858962732364944 3.68359375 41.427734375 C2.997651853543175 37.86218149753506 2.34595620945629 34.28992581742614 1.72265625 30.712890625 C1.5621679687500318 29.824404296875002 1.5621679687500318 29.824404296875002 0.75 25.328125 C0.4728515624999545 23.728720703124992 0.19570312500002274 22.129316406249984 -0.08984375 20.4814453125 C-1.406274335229 15.925459908508628 -2.984079164769696 13.57711863615549 -6.3125 10.25 C-15.341201471486897 5.735649264256551 -30.693530140479993 10.746040037312184 -40 12.375 Z " fill="#2C2C2C" transform="translate(564.3125,175.75)"/>
<path d="M0 0 C0.7504332733154229 0.1349084472656159 0.7504332733154229 0.1349084472656159 4.5480804443359375 0.817626953125 C9.365247361847821 1.687044595121506 14.178723598916008 2.575173532841177 18.9921875 3.46484375 C22.29663582749879 4.0671911541786585 25.601242509935332 4.668670469053836 28.906005859375 5.269287109375 C35.34781782427285 6.442532329945152 41.788060251188995 7.623870769574637 48.22705078125 8.8125 C55.35168870550979 10.126844933360076 62.480821997498424 11.412427044672995 69.61328125 12.68359375 C72.88561852561634 13.276230233956653 76.1577795843051 13.869841364527701 79.4296875 14.46484375 C80.84330566406254 14.714357910156195 82.25692382812497 14.963872070312505 83.71337890625 15.220947265625 C94.67220703858607 17.263116190603228 102.44423890832059 20.259359594889816 109.1171875 29.52734375 C112.83684610865294 37.76373066916017 111.9299471855827 46.12614351011007 110.3759765625 54.80810546875 C110.29067687988277 55.29589981079107 110.29067687988277 55.29589981079107 109.8590087890625 57.764434814453125 C109.29728666632673 60.9562347398072 108.71537791453773 64.14397569120388 108.1328125 67.33203125 C107.73385299492656 69.57182663999617 107.33606606606645 71.81183117788942 106.93939208984375 74.05203247070313 C106.10719410742922 78.73533327190091 105.26586159062163 83.41686060123129 104.4169921875 88.09716796875 C103.33462171992801 94.0650353159466 102.26740582704156 100.03547468721456 101.20611953735352 106.00712394714355 C100.18655728236195 111.74129999685499 99.16024097769707 117.47426017397208 98.1328125 123.20703125 C97.93997932434081 124.28515956878664 97.74714614868162 125.36328788757328 97.54846954345703 126.47408676147461 C90.97740013348186 163.11607518621418 90.97740013348186 163.11607518621418 80.6796875 170.33984375 C67.36933987266661 177.54052361396725 50.34714348996749 171.79312234257145 36.25390625 169.1328125 C33.870414035866816 168.69078837076404 31.48676964444485 168.24958410704426 29.102981567382813 167.8091583251953 C24.128378200452858 166.88747549265156 19.155339946950562 165.9578906528817 14.183349609375 165.022216796875 C7.822963822986594 163.82563589039876 1.4595886177155535 162.6459506400622 -4.904965400695801 161.4717664718628 C-9.819161229491783 160.56376649089793 -14.731957876751267 159.648380150756 -19.644338607788086 158.73061561584473 C-21.990250574488698 158.29294923722307 -24.336522054044394 157.8572051820356 -26.68316078186035 157.42345237731934 C-29.962465598022902 156.8158437200948 -33.239829481691345 156.198674691031 -36.516845703125 155.578857421875 C-38.37847854614256 155.23022140502928 -40.24011138916018 154.88158538818357 -42.15815734863281 154.5223846435547 C-51.86739199789582 152.3363557588582 -58.1950240624065 149.64581593763512 -63.9453125 141.33984375 C-71.27439644143021 128.1474926554256 -65.98384208272671 110.73288618146387 -63.51953125 96.73046875 C-63.14473099596023 94.55497497097053 -62.77078908485447 92.37933315831594 -62.39765930175781 90.20355224609375 C-61.617169620410436 85.6671239824434 -60.82888028224289 81.13214723628141 -60.034423828125 76.59814453125 C-59.02019531679139 70.80827582047016 -58.02181500376736 65.01581579471053 -57.028780937194824 59.2222785949707 C-56.259029940594814 54.73798062707965 -55.482840501589294 50.25481656190459 -54.704538345336914 45.771995544433594 C-54.33426330542602 43.63697255072873 -53.96550242214971 41.50168634785291 -53.59833335876465 39.366127014160156 C-53.08308847905306 36.377445608319704 -52.558681380884934 33.390348206808085 -52.033935546875 30.4033203125 C-51.7385942077637 28.70902893066409 -51.44325286865234 27.01473754882818 -51.13896179199219 25.26910400390625 C-48.65106037272261 13.235084957921458 -45.29680485736816 5.273858553010314 -35.0078125 -1.72265625 C-23.422617210842077 -4.338668089487328 -11.489290113850586 -2.148204918164538 0 0 Z M-35.1328125 13.40234375 C-38.31372487278611 18.70386437131026 -39.04952310601499 22.23544571601269 -40.0703125 28.28515625 C-40.23652099609376 29.254037780761678 -40.40272949218752 30.22291931152347 -40.573974609375 31.221160888671875 C-41.10331700142126 34.32166149769773 -41.61814585997024 37.42437705631232 -42.1328125 40.52734375 C-42.47824029606363 42.56005347298969 -42.82458603641771 44.59260743063646 -43.171875 46.625 C-45.00840734719321 57.42300588076 -46.746872776934254 68.23529322081674 -48.4404296875 79.056640625 C-49.67822398845908 86.82558934046938 -51.05041235737076 94.57071615393102 -52.4140625 102.318359375 C-56.95198740881847 128.32739195424665 -56.95198740881847 128.32739195424665 -53.5703125 135.90234375 C-48.338013851902815 141.26880390189456 -42.72139206461617 142.98594379997064 -35.4609375 144.15625 C-33.70950439453122 144.44822265624998 -31.958071289062502 144.74019531249996 -30.153564453125 145.041015625 C-28.24921630859376 145.34587890624994 -26.344868164062518 145.6507421875 -24.3828125 145.96484375 C-20.25517646738416 146.6457363983277 -16.129429465630153 147.33768242089707 -12.00390625 148.03125 C-10.910756072998026 148.21402496337896 -9.81760589599611 148.3967999267578 -8.691329956054688 148.58511352539063 C0.10866967791093884 150.0701073119102 8.878191045628228 151.6957920058959 17.64453125 153.3671875 C18.967985534667946 153.61876113891606 20.291439819335892 153.870334777832 21.654998779296875 154.12953186035156 C26.919236216514037 155.13176423124787 32.183012484239384 156.13589468334965 37.4434814453125 157.15774536132813 C41.128678007403096 157.87299202503732 44.816032498426694 158.57605268601435 48.50390625 159.27734375 C49.59178939819333 159.49257186889645 50.679672546386655 159.707799987793 51.80052185058594 159.92955017089844 C68.94045033682062 163.15838604790758 68.94045033682062 163.15838604790758 76.8671875 158.40234375 C80.26993002031111 154.18635774882227 81.51720596880637 150.69770532402094 82.3671875 145.38671875 C82.60880615234373 143.93918212890628 82.85042480468746 142.49164550781256 83.099365234375 141.000244140625 C83.35274658203127 139.40043701171874 83.60612792968755 137.80062988281247 83.8671875 136.15234375 C84.45885119792035 132.58277004930164 85.05419318259942 129.01380493166812 85.65234375 125.4453125 C85.81605972290038 124.46159164428707 85.97977569580075 123.47787078857425 86.14845275878906 122.46434020996094 C87.66533934474887 113.42173860170965 89.31814865998342 104.40602902091041 90.98828125 95.390625 C91.26056549072268 93.91651153564453 91.53284973144537 92.44239807128906 91.81338500976563 90.92361450195313 C92.91694330446853 84.9518252139236 94.02119350831435 78.98020344449685 95.137939453125 73.0108642578125 C95.92860453494723 68.77937687264921 96.70930957626774 64.54615329759906 97.48828125 60.3125 C97.72856552124017 59.042073516845676 97.96884979248046 57.77164703369135 98.21641540527344 56.46272277832031 C101.20814976485235 40.08426827970459 101.20814976485235 40.08426827970459 98.1796875 34.02734375 C93.0951864629601 28.25574797822503 87.15947755828915 27.497961530651196 79.9921875 26.33984375 C77.49056371190045 25.914648843500117 74.98929523098764 25.48736099758696 72.48828125 25.05859375 C71.01987792968748 24.80851562500004 69.55147460937496 24.558437499999968 68.03857421875 24.30078125 C57.030693407053036 22.38835554010268 46.04507141147326 20.3499472474482 35.0546875 18.33984375 C30.423442376142816 17.493330879313817 25.791960845209132 16.648133909536114 21.16015625 15.8046875 C20.047916870117206 15.602098236083975 18.93567749023441 15.39950897216795 17.78973388671875 15.190780639648438 C8.313863718903633 13.4709023138455 -1.1738498002248434 11.824442246997592 -10.666748046875 10.201416015625 C-13.506685390666348 9.693291873809585 -16.33391620321669 9.102067824195842 -19.1328125 8.40234375 C-26.26508982463116 7.782145721771258 -29.7771030057408 8.582205205166701 -35.1328125 13.40234375 Z " fill="#2C2C2C" transform="translate(496.1328125,602.59765625)"/>
<path d="M0 0 C0.6749450683593636 0.12103088378904658 0.6749450683593636 0.12103088378904658 4.090576171875 0.7335205078125 C8.487579578108921 1.524372869634533 12.882549411798891 2.325875093638899 17.27734375 3.12890625 C20.304580163806577 3.6786097565941986 23.331842697410252 4.228169439291037 26.359130859375 4.777587890625 C32.4357589190264 5.882645255650118 38.511246806701365 6.993718595129167 44.5859375 8.109375 C51.169979343050954 9.318539972948429 57.756515230336504 10.513070840976866 64.34449768066406 11.700546264648438 C68.66502242321849 12.482778561024531 72.98294589564057 13.278572985079506 77.30001831054688 14.079620361328125 C80.20555859507499 14.615662628025063 83.11362340275457 15.13796353987982 86.021728515625 15.659912109375 C106.35728929804077 19.489427293401548 106.35728929804077 19.489427293401548 113.71484375 27.50390625 C120.0233535261915 38.07066012512075 117.66296743678595 47.84872072410917 115.512451171875 59.464599609375 C115.16506393432621 61.35033187866213 114.81767669677731 63.23606414794921 114.45976257324219 65.17893981933594 C114.08031533254075 67.21311216356304 113.70048932765656 69.24721388571709 113.3203125 71.28125 C112.92766504079827 73.39293180363984 112.53511397443503 75.50463153267486 112.14265441894531 77.61634826660156 C111.32106005543324 82.03053469888744 110.49591688079204 86.44404148841477 109.668701171875 90.857177734375 C108.61383403764876 96.4882513996418 107.57149209513864 102.12156434209737 106.53228282928467 107.7555456161499 C105.72622646302705 112.11413859379877 104.91162269249367 116.47110285050383 104.09469032287598 120.82766914367676 C103.70694698348416 122.90294466620759 103.32223471596626 124.97878906451899 102.94072532653809 127.05521965026855 C97.58255457188898 156.16652378651543 97.58255457188898 156.16652378651543 88.21484375 163.69140625 C78.07443448717106 169.50722920956366 68.38563413960355 167.99603086417665 57.28662109375 165.811279296875 C56.771230239868146 165.71127624511723 56.771230239868146 165.71127624511723 54.16304016113281 165.2052001953125 C50.790207580813785 164.54798847794962 47.420533432531556 163.87593752255202 44.05078125 163.203125 C41.68924206859674 162.73874879380014 39.327555269889785 162.2751227121962 36.965728759765625 161.8122100830078 C32.03053450272159 160.84263126330995 27.096797941438695 159.86604300195188 22.1640625 158.884033203125 C15.857319151499837 157.62877249694725 9.547843785227258 156.38795182412719 3.237295150756836 155.15198040008545 C-1.6347727950577564 154.19664492088953 -6.5056271123840475 153.23524060035015 -11.376110076904297 152.27186012268066 C-13.70172081756209 151.81229370479934 -16.027627927140657 151.3542243120753 -18.353839874267578 150.8977108001709 C-21.609005321326833 150.2576166184981 -24.862528641846893 149.6097464560754 -28.11572265625 148.959716796875 C-29.963402404785143 148.59331588745113 -31.811082153320285 148.22691497802737 -33.714752197265625 147.8494110107422 C-43.81614910425003 145.54240241995228 -49.63534351076663 143.05787998133133 -56.78515625 135.69140625 C-61.788750314952665 127.24784126539237 -60.988777512969705 117.87530721412332 -59.309814453125 108.53515625 C-59.2253179168701 108.05477905273438 -59.2253179168701 108.05477905273438 -58.79771423339844 105.623779296875 C-58.24050704004708 102.47709396784688 -57.66384161234453 99.33435085718429 -57.0859375 96.19140625 C-56.689649086330576 93.9877877868476 -56.294252505469785 91.78400877241239 -55.89970397949219 89.580078125 C-55.07172896560428 84.97234705570378 -54.234318645435394 80.36646258883741 -53.389892578125 75.76171875 C-52.312000680194444 69.88064457055441 -51.25569871369538 63.995943973513704 -50.20621967315674 58.1097412109375 C-49.39314871507969 53.56135601809905 -48.5696184136217 49.01491305803887 -47.74287986755371 44.468994140625 C-47.34963540319461 42.30075485488425 -46.95935044792424 40.13197652662211 -46.57216835021973 37.962646484375 C-46.02769193093627 34.92230669293326 -45.469392577986184 31.88481365980465 -44.907470703125 28.84765625 C-44.59356887817381 27.12353515625 -44.27966705322268 25.3994140625 -43.95625305175781 23.623046875 C-41.78961557975816 14.499055279665981 -39.18824821310517 7.6616417041170735 -31.78515625 1.69140625 C-20.622266240123338 -3.8193875523441534 -11.756358565422659 -2.1565950906434637 0 0 Z M-28.78515625 14.69140625 C-31.958610509459845 20.700319640607916 -32.95010108460417 27.052271335892897 -34.0546875 33.68359375 C-34.25640563964845 34.85062835693361 -34.4581237792969 36.01766296386717 -34.66595458984375 37.220062255859375 C-35.317842432425266 41.00085511432587 -35.95787561059359 44.7835476105048 -36.59765625 48.56640625 C-37.26474374054078 52.45853904200999 -37.93456289675271 56.35019514824921 -38.60459899902344 60.2418212890625 C-39.046904868037984 62.81187853213635 -39.48820379177306 65.3821092786979 -39.92848205566406 67.9525146484375 C-41.862864567355984 79.2249429353854 -43.912168692564364 90.47493437452874 -46.071533203125 101.70654296875 C-49.83324056186325 121.80917439237612 -49.83324056186325 121.80917439237612 -47.28515625 128.81640625 C-42.63514855200009 134.1639151026999 -36.242278792706145 135.19831308752146 -29.505126953125 136.529052734375 C-27.86844558715819 136.856268157959 -26.231764221191384 137.183483581543 -24.545486450195313 137.52061462402344 C-23.665285873413097 137.6925257110596 -23.665285873413097 137.6925257110596 -19.2109375 138.5625 C-17.38161178588865 138.92610122680662 -15.55228607177736 139.28970245361324 -13.667526245117188 139.66432189941406 C-8.801908778381971 140.6300105467144 -3.935075247068312 141.58903760042836 0.9324951171875 142.5447998046875 C5.8174005859549425 143.50555744651626 10.700602515071125 144.47489209208322 15.583984375 145.443359375 C24.454776591992754 147.2015074705489 33.32684300461631 148.95302777156007 42.200531005859375 150.69650268554688 C45.70311617310301 151.39146022918305 49.20347055180082 152.09771409915743 52.702056884765625 152.81253051757813 C54.478495788574264 153.1748275756836 56.25493469238279 153.53712463378906 58.085205078125 153.910400390625 C58.884758682251004 154.07506050109862 58.884758682251004 154.07506050109862 62.93098449707031 154.90834045410156 C69.62014102151568 156.13108129791476 75.3967193391353 157.05014480523835 81.71484375 154.00390625 C87.24788703739773 148.8858412091571 88.07834670859143 143.38602278656526 89.37890625 136.26171875 C89.57246704101567 135.21887222290036 89.76602783203123 134.17602569580072 89.9654541015625 133.10157775878906 C90.59952589727038 129.6748223884406 91.21977457758499 126.24572056120962 91.83984375 122.81640625 C92.49812420412115 119.23247261562676 93.15952572694857 115.64912336048423 93.82101440429688 112.06578063964844 C94.27349578662802 109.61292899628143 94.72475659904421 107.15985189812056 95.17483520507813 104.70655822753906 C96.6899077019915 96.46346471537913 98.25995129422483 88.23263771115677 99.87109375 80.0078125 C100.08099945068363 78.93227111816407 100.29090515136716 77.85672973632813 100.50717163085938 76.74859619140625 C102.12240836391561 68.47427492187916 102.12240836391561 68.47427492187916 102.93927001953125 64.35919189453125 C103.49872652653198 61.53764885948567 104.04840462154925 58.71417229559893 104.59765625 55.890625 C104.91105957031255 54.30080810546872 105.22446289062498 52.71099121093749 105.54736328125 51.072998046875 C107.15300293445807 40.532977982454724 107.15300293445807 40.532977982454724 104.52734375 35.37890625 C99.95824958844855 30.06887790008892 95.19412283745055 29.097506583543918 88.58984375 28.00390625 C86.59995219988821 27.66325388364851 84.61039905513655 27.320621824626926 82.62109375 26.9765625 C81.47125000000005 26.779497070312516 80.32140625 26.582431640624975 79.13671875 26.37939453125 C71.10818895659418 24.971003286365942 63.101493428702156 23.442263685879936 55.08984375 21.94140625 C51.35948842699281 21.248087352300217 47.62901701353826 20.55539281829266 43.8984375 19.86328125 C36.94841080242202 18.57347658272363 29.999977878372192 17.275898286665836 23.0533447265625 15.96795654296875 C20.033084451714785 15.40074458754168 17.012079050246257 14.837709055233404 13.99072265625 14.2763671875 C10.177901420971523 13.567820830990115 6.366309282176815 12.852619151749593 2.55615234375 12.1298828125 C0.8231689453124886 11.809873046874998 -0.9098144531250227 11.489863281249995 -2.6953125 11.16015625 C-4.212619628906282 10.875917968750002 -5.729926757812507 10.591679687500005 -7.293212890625 10.298828125 C-15.949552057772848 9.12827690765863 -22.203004437328957 8.37791369498899 -28.78515625 14.69140625 Z " fill="#2C2C2C" transform="translate(498.78515625,388.30859375)"/>
<path d="M0 0 C6.027569776723567 5.686386581814645 10.257276023337113 12.692839613442743 14.765625 19.609375 C16.426743515409953 22.130093306601225 18.188701907125733 24.584935876167606 20 27 C20 27.659999999999968 20 28.32000000000005 20 29 C27.442061370194324 24.215817690589347 34.47087106583888 18.948606085749134 41.5234375 13.609375 C46.842395872131874 9.617168042040362 49.244541794602355 8.283512008518414 56 9 C59 11.0625 59 11.0625 61 14 C61.782971401243 18.306342706836517 61.55944548342836 20.191787007843914 59.05859375 23.8046875 C55.266276303086556 27.766521052458756 50.994120148202796 30.692554693146235 46.4375 33.6875 C37.10854503464179 39.918591224018655 37.10854503464179 39.918591224018655 33 43 C33.976775556383245 46.90710222553287 35.02745452374086 48.808250993054344 37.2734375 52.0625 C37.93343749999997 53.02414062499997 38.59343750000005 53.985781249999945 39.2734375 54.9765625 C39.96695312500003 55.97429687500005 40.660468750000064 56.972031249999986 41.375 58 C42.06078124999999 58.99773437500005 42.74656249999998 59.995468749999986 43.453125 61.0234375 C46.24102979961572 65.06969621695202 49.051177151244815 69.06823620165972 52 73 C52.54046356356082 77.24649942797782 52.48376178989952 79.25823192215398 50.125 82.875 C48 85 48 85 46 86 C40 86 40 86 37.4609375 84.4765625 C34.36871196426523 81.36470378626063 32.06012650487651 78.02420103739371 29.625 74.375 C28.672382812500018 72.95960937500001 27.719765625000036 71.54421875000003 26.73828125 70.0859375 C26.286464843749968 69.41175781250001 26.286464843749968 69.41175781250001 24 66 C22.61037229443616 63.995683274935345 21.215730746660938 61.994816825192174 19.8125 60 C18.884374999999977 58.67999999999995 17.956249999999955 57.360000000000014 17 56 C10.782275139380431 59.31272226180556 5.3320718342222335 63.36499781072507 -0.25 67.625 C-12.607954545454561 77 -12.607954545454561 77 -19 77 C-21.699906616411113 75.20006225572592 -23.54188649955637 73.91622700088726 -25 71 C-25.375 67.6875 -25.375 67.6875 -25 64 C-21.136542123397874 59.511460244727346 -16.394592732299714 56.121112404027144 -11.6875 52.5625 C-10.247617187499998 51.470664062499964 -8.807734374999995 50.37882812500004 -7.32421875 49.25390625 C-3.2193110712897806 46.16502811416842 0.8885208007062033 43.080125095064204 5 40 C3.236373709529971 35.59093427382493 1.6643225761362146 32.98894597164542 -1.1875 29.3125 C-1.985429687500016 28.263203125000018 -2.783359374999975 27.213906250000036 -3.60546875 26.1328125 C-5.106941756922424 24.16840572748481 -6.609393923990297 22.204746561299203 -8.11328125 20.2421875 C-14.436905019472078 11.679765253137134 -14.436905019472078 11.679765253137134 -14 6 C-9.783018520089627 -0.15451351122055712 -7.343298387047014 -2.0464929931114284 0 0 Z " fill="#2C2C2C" transform="translate(499,647)"/>
<path d="M0 0 C11.43477020799196 8.576077655994027 18.616413221321977 20.320347356610114 21.421875 34.34765625 C22.240000688682812 50.99556270575465 19.64135578912976 66.15642216799279 8.59375 79.09375 C0.5785386287507208 87.41169417483957 -9.503590485481595 93.88601289608653 -21.1875 94.6484375 C-38.12507714909577 94.68704899806028 -49.18427678145963 91.76830467508648 -61.890625 80.53515625 C-74.24961318992848 66.50037305126773 -76.6483330883135 52.418884255521675 -75.578125 34.34765625 C-73.294921987473 21.391166865659898 -66.43231733179095 10.916519147209556 -56.578125 2.34765625 C-39.259628896095705 -9.707375351737255 -18.245604273647132 -11.69377364811021 0 0 Z M-55.390625 17.22265625 C-62.87197708636927 26.90440600883079 -65.51911509910974 36.17453036469175 -64.578125 48.34765625 C-62.86404766889359 59.741229097942664 -58.171928166231055 69.12107604773928 -49.1171875 76.5859375 C-40.51152304719676 82.55694468186812 -31.958660710073445 84.66562027606733 -21.578125 83.34765625 C-11.832826779656898 81.39374216098975 -3.755701666084292 76.91187041412923 2.26953125 68.88671875 C9.09214729535779 57.990648898691575 12.567051248225766 46.06836919196007 9.73828125 33.25 C6.552839146074689 22.794876746037573 0.45541871689522395 14.629443573133301 -8.578125 8.34765625 C-25.312129875486676 0.004090793874979681 -42.46817650731157 4.088364339398595 -55.390625 17.22265625 Z " fill="#2C2C2C" transform="translate(924.578125,468.65234375)"/>
<path d="M0 0 C2.6999066164111127 1.7999377442740467 4.541886499556426 3.0837729991127674 6 6 C6 12.85810127367074 4.809248901801766 14.571266917985184 1.125 20.1875 C0.5976123046874591 20.998481445312507 0.07022460937503183 21.809462890625014 -0.47314453125 22.64501953125 C-2.2994306520751024 25.44088620724972 -4.148222821056606 28.220956421183985 -6 31 C-7.437506660269037 33.17056850577194 -8.875006376808187 35.341141610193716 -10.3125 37.51171875 C-13.363711625430255 42.10879415154426 -16.429183683492056 46.69596488623995 -19.50390625 51.27734375 C-22.39346664764912 55.58540437281653 -25.256528205304107 59.90865758754268 -28.08984375 64.25390625 C-28.721000976562493 65.21699707031252 -29.352158203124986 66.18008789062503 -30.00244140625 67.17236328125 C-31.700627303392082 69.7665976312677 -33.39158685416464 72.3655582811349 -35.08203125 74.96484375 C-39.55250611128355 81.14690604144033 -39.55250611128355 81.14690604144033 -43 83 C-49.232923565563794 83.16515811291242 -52.24918951061238 80.63293344950375 -56.75 76.5625 C-57.963007812499995 75.4783984375 -59.17601562499999 74.39429687500001 -60.42578125 73.27734375 C-61.60527343749999 72.19582031250002 -62.78476562499998 71.11429687499998 -64 70 C-65.02480468750002 69.07316406249998 -66.04960937499999 68.14632812499997 -67.10546875 67.19140625 C-68.93650544632123 65.53210816795445 -70.76240263447119 63.86711308915642 -72.58203125 62.1953125 C-74.72282051783515 60.251655684938044 -76.9202037467486 58.37073621487997 -79.125 56.5 C-82.76429517844656 53.33539549700299 -82.92378325510322 52.9450876367203 -83.3125 48.125 C-83 44 -83 44 -79 40 C-74.75 39.3125 -74.75 39.3125 -70 40 C-66.0625 42.9375 -66.0625 42.9375 -62 47 C-60.281358465642086 48.59475173050083 -58.55186738070029 50.17787948282859 -56.8125 51.75 C-56.014570312499984 52.48734374999998 -55.216640625000025 53.224687500000016 -54.39453125 53.984375 C-52 56 -52 56 -47 59 C-41.14052081396369 50.2728227652683 -35.35817852428568 41.497928084335456 -29.625 32.6875 C-27.704670319969352 29.742848679710022 -25.783502922175217 26.79874647791624 -23.86181640625 23.85498046875 C-22.646040823655994 21.990663702049943 -21.432090726935257 20.12515485095787 -20.22021484375 18.25830078125 C-18.591115453676935 15.75109866191778 -16.952057699726424 13.25037553963162 -15.3125 10.75 C-14.846503906250064 10.035859375000001 -14.846503906250064 10.035859375000001 -12.48828125 6.421875 C-8.488204124194226 0.9209840075261013 -6.941234521230513 0 0 0 Z " fill="#2C2C2C" transform="translate(538,219)"/>
<path d="M0 0 C2.9375 2 2.9375 2 5 5 C5.598595878443348 9.256681802263813 5.692813779638186 11.816443126451475 3.5 15.5625 C0.11965066340167141 18.858340603183365 -3.4151380648432905 21.927261198437122 -7 25 C-8.670616553762216 26.495599581463352 -10.337154861191607 27.995764705200997 -12 29.5 C-16.296028778902723 33.37690401998532 -20.64500389568468 37.18937840872411 -25 41 C-26.668792647460577 42.4976344272082 -28.335353683560925 43.99775820223789 -30 45.5 C-34.29941185067139 49.374051469706956 -38.615180296251424 53.22230917830893 -43 57 C-43.866250000000036 57.803085937499986 -44.73249999999996 58.60617187499997 -45.625 59.43359375 C-50.06594645266273 63.38726968910669 -52.90290601426875 65.77203241854937 -58.8125 67 C-67.08139657750428 65.02533813074524 -71.15678055156934 56.06920443815784 -75.6875 49.3125 C-78.72208954629303 44.81744965049671 -81.74467697168876 40.340430704414985 -85 36 C-85.5625 31.5625 -85.5625 31.5625 -85 27 C-82.4375 23.875 -82.4375 23.875 -79 22 C-74.76685465013077 21.851468584215127 -72.81822569398895 22.28505853295718 -69.6171875 25.08203125 C-66.58744862939051 28.459963990813833 -64.16568243737731 32.01262026268813 -61.6875 35.8125 C-61.24599609375002 36.48603515625001 -61.24599609375002 36.48603515625001 -59.01171875 39.89453125 C-58.67978515624998 40.40693359375001 -58.67978515624998 40.40693359375001 -57 43 C-52.17812508282975 40.10687504969786 -48.74420842065365 37.11195326664887 -44.6875 33.25 C-39.54304571492173 28.389412021068324 -34.34888878374886 23.63570361258229 -29 19 C-27.163228074704875 17.337123641596747 -25.33016232023658 15.67014812830331 -23.5 14 C-7.182695878202708 -0.8668770887485948 -7.182695878202708 -0.8668770887485948 0 0 Z " fill="#2C2C2C" transform="translate(568,442)"/>
<path d="M0 0 C5.922305114645496 2.199713328296866 9.069740898216537 4.373902524575783 12 10 C13.759395798489777 17.037583193959335 13.879195866306304 21.405179591351384 10.3125 27.875 C7 32 7 32 2 35 C-5.515781834134032 35.559685881265295 -10.914815394960215 35.94421249159484 -17 31 C-21.402446503769056 25.69448754673988 -21.60764345070811 20.674227207498916 -21.38671875 14.03125 C-20.70237756399672 8.667121107691173 -18.301884375494296 6.1468981403163525 -14.375 2.6875 C-9.58977769442265 -0.7125263750154431 -5.873920727011182 -0.3415070190122833 0 0 Z " fill="#2C2C2C" transform="translate(728,470)"/>
<path d="M0 0 C4.418568657697733 1.781680910362013 6.5132857272494675 3.376007342627531 9.4375 7.125 C11.816653644237135 13.025301037708175 11.924771716610792 18.277061056646062 9.875 24.3125 C6.989200500407662 28.448812616082307 3.8148612332444145 31.395046255585214 -1 33 C-7.904938142774029 33.70219709926516 -11.550717920807699 32.26860429536731 -17 28 C-21.07776869275949 22.69890069941266 -21.734543459256315 18.610891133306666 -21 12 C-16.47778250295198 1.7831382474099655 -10.753593089913863 -0.6325642994066811 0 0 Z " fill="#2C2C2C" transform="translate(334,470)"/>
</svg>
